<?xml version="1.0" encoding="UTF-8"?>
<svg width="1440px" height="858px" viewBox="0 0 1440 858" version="1.1" xmlns="http://www.w3.org/2000/svg" xmlns:xlink="http://www.w3.org/1999/xlink">
    <!-- Generator: Sketch 53.2 (72643) - https://sketchapp.com -->
    <title>home-hero-slants</title>
    <desc>Created with Sketch.</desc>
    <defs>
        <linearGradient x1="50%" y1="0%" x2="50%" y2="100%" id="linearGradient-1">
            <stop stop-color="#FFFFFF" stop-opacity="0.05" offset="0%"></stop>
            <stop stop-color="#FFFFFF" stop-opacity="0" offset="100%"></stop>
        </linearGradient>
        <linearGradient x1="50%" y1="0%" x2="50%" y2="100%" id="linearGradient-2">
            <stop stop-color="#FFFFFF" stop-opacity="0.05" offset="0%"></stop>
            <stop stop-color="#FFFFFF" stop-opacity="0" offset="100%"></stop>
        </linearGradient>
        <linearGradient x1="50%" y1="0%" x2="50%" y2="100%" id="linearGradient-3">
            <stop stop-color="#FFFFFF" stop-opacity="0.05" offset="0%"></stop>
            <stop stop-color="#FFFFFF" stop-opacity="0" offset="100%"></stop>
        </linearGradient>
        <linearGradient x1="50%" y1="100%" x2="50%" y2="3.061617e-15%" id="linearGradient-4">
            <stop stop-color="#000000" stop-opacity="0.05" offset="0%"></stop>
            <stop stop-color="#000000" stop-opacity="0" offset="100%"></stop>
        </linearGradient>
        <linearGradient x1="50%" y1="0%" x2="50%" y2="100%" id="linearGradient-5">
            <stop stop-color="#FFFFFF" stop-opacity="0.05" offset="0%"></stop>
            <stop stop-color="#FFFFFF" stop-opacity="0" offset="100%"></stop>
        </linearGradient>
        <linearGradient x1="50%" y1="0%" x2="50%" y2="100%" id="linearGradient-6">
            <stop stop-color="#FFFFFF" stop-opacity="0.05" offset="0%"></stop>
            <stop stop-color="#FFFFFF" stop-opacity="0" offset="100%"></stop>
        </linearGradient>
    </defs>
    <g id="Page-1" stroke="none" stroke-width="1" fill="none" fill-rule="evenodd">
        <g id="Tesorio---Home-Page">
            <g id="Group-21">
                <g id="home-hero-slants" transform="translate(-565.000000, -495.000000)">
                    <rect id="Rectangle" fill="url(#linearGradient-1)" transform="translate(992.000000, 857.049981) rotate(-60.000000) translate(-992.000000, -857.049981) " x="799" y="237.049981" width="386" height="1240"></rect>
                    <rect id="Rectangle-Copy-28" fill="url(#linearGradient-2)" transform="translate(555.435750, 913.042940) rotate(-60.000000) translate(-555.435750, -913.042940) " x="518.43575" y="293.04294" width="74" height="1240"></rect>
                    <rect id="Rectangle-Copy-31" fill="url(#linearGradient-2)" transform="translate(1335.435750, 443.042940) rotate(-60.000000) translate(-1335.435750, -443.042940) " x="1298.43575" y="-176.95706" width="74" height="1240"></rect>
                    <rect id="Rectangle-Copy-32" fill="url(#linearGradient-2)" transform="translate(844.435750, 466.042940) rotate(-60.000000) translate(-844.435750, -466.042940) " x="807.43575" y="-153.95706" width="74" height="1240"></rect>
                    <rect id="Rectangle-Copy-29" fill="url(#linearGradient-3)" transform="translate(777.685750, 1404.920816) rotate(-60.000000) translate(-777.685750, -1404.920816) " x="706.18575" y="784.920816" width="143" height="1240"></rect>
                    <rect id="Rectangle-Copy-36" fill="url(#linearGradient-4)" transform="translate(1487.481520, 1165.386207) rotate(-60.000000) translate(-1487.481520, -1165.386207) " x="1439.98152" y="278.886207" width="95" height="1773"></rect>
                    <rect id="Rectangle-Copy-30" fill="url(#linearGradient-5)" transform="translate(1702.185750, 423.983685) rotate(-60.000000) translate(-1702.185750, -423.983685) " x="1571.68575" y="-196.016315" width="261" height="1240"></rect>
                    <rect id="Rectangle-Copy-33" fill="url(#linearGradient-2)" transform="translate(2200.435750, 1255.042940) scale(-1, -1) rotate(-60.000000) translate(-2200.435750, -1255.042940) " x="2163.43575" y="635.04294" width="74" height="1240"></rect>
                    <rect id="Rectangle-Copy-34" fill="url(#linearGradient-6)" transform="translate(2194.935750, 1097.928203) scale(-1, -1) rotate(-60.000000) translate(-2194.935750, -1097.928203) " x="2128.93575" y="477.928203" width="132" height="1240"></rect>
                </g>
            </g>
        </g>
    </g>
</svg>