<svg width="100%" height="100%" viewBox="0 0 1136 858" fill="none" xmlns="http://www.w3.org/2000/svg">
<path d="M991.018 751.253C981.795 752.046 972.517 751.922 963.318 750.883C862.198 739.703 724.498 742.883 612.248 812.433C457.008 908.603 213.718 826.273 106.398 781.483C24.3983 747.273 -18.1716 663.483 7.39835 584.833C7.75835 583.723 8.12835 582.613 8.51835 581.503C24.6084 534.763 56.3683 498.183 95.6983 478.793C129.978 461.893 180.028 426.603 202.298 358.793C211.498 330.793 224.118 304.453 240.508 281.493C284.398 220.003 376.278 128.433 534.298 129.003C562.004 129.137 589.502 133.791 615.708 142.783C673.438 162.453 725.578 202.443 765.338 257.883C790.708 293.243 828.728 326.113 883.158 328.793C958.698 332.533 1030.79 367.703 1084.87 430.293C1086.43 432.093 1087.97 433.903 1089.51 435.733C1185.8 550.443 1118.92 740.073 991.018 751.253Z" fill="#508EBC"/>
<path d="M457.583 510.1C457.583 510.1 465.583 508.27 470.803 513.65C470.803 513.65 467.433 516.65 459.533 513.32L457.583 510.1Z" fill="#6C63FF"/>
<path d="M500.273 577.96C497.707 578.416 495.194 579.133 492.773 580.1C438.833 601.64 439.733 742.64 439.733 742.64H423.853C423.853 742.64 418.853 682.13 397.063 595.8C377.433 518.13 457.943 448.52 474.293 435.32C476.133 433.85 477.153 433.07 477.153 433.07C558.243 462.87 500.273 577.96 500.273 577.96Z" fill="#AFC0E0"/>
<path opacity="0.2" d="M483.053 435.52C481.183 434.66 479.253 433.84 477.203 433.09C477.203 433.09 476.203 433.87 474.343 435.34C457.993 448.54 377.483 518.15 397.113 595.82C418.903 682.15 423.853 742.64 423.853 742.64H432.783C432.783 742.64 427.833 682.13 405.993 595.8C386.443 518.49 466.173 449.14 483.053 435.52Z" fill="white"/>
<path d="M767.813 595.82C745.973 682.15 741.053 742.64 741.053 742.64H725.143C725.143 742.64 726.143 595.28 668.413 578.83C667.163 578.455 665.89 578.157 664.603 577.94C664.603 577.94 606.603 462.85 687.723 433.07C687.723 433.07 688.543 433.68 690.023 434.87C705.053 446.9 787.663 517.25 767.813 595.82Z" fill="#AFC0E0"/>
<path opacity="0.1" d="M500.273 577.96C497.707 578.416 495.194 579.133 492.773 580.1C483.021 532.373 476.844 483.986 474.293 435.34C476.133 433.87 477.153 433.09 477.153 433.09C558.243 462.87 500.273 577.96 500.273 577.96Z" fill="black"/>
<path opacity="0.1" d="M690.053 434.89C686.747 483.394 679.52 531.551 668.443 578.89C667.193 578.515 665.92 578.217 664.633 578C664.633 578 606.633 462.91 687.753 433.13C687.723 433.09 688.543 433.7 690.053 434.89Z" fill="black"/>
<path d="M660.276 594.78C654.676 616.873 648.112 639.54 640.586 662.78C640.586 662.78 604.866 699.99 518.586 662.78C518.586 662.78 509.966 638.48 500.486 597.17C479.616 506.34 454.586 333.25 507.916 155.46C523.797 102.013 546.369 50.7869 575.096 3C575.096 3 620.656 55.31 654.096 155.43C687.536 255.55 708.816 403.5 660.276 594.78Z" fill="#E3E8F4"/>
<path d="M582.433 373.23C621.993 373.23 654.063 341.16 654.063 301.6C654.063 262.04 621.993 229.97 582.433 229.97C542.873 229.97 510.803 262.04 510.803 301.6C510.803 341.16 542.873 373.23 582.433 373.23Z" fill="#AFC0E0"/>
<path d="M633.233 301.64C633.233 311.26 630.501 320.682 625.356 328.81C620.211 336.938 612.863 343.438 604.168 347.554C595.473 351.67 585.789 353.233 576.24 352.06C566.692 350.887 557.674 347.028 550.233 340.93C546.601 337.939 543.398 334.463 540.713 330.6C539.507 328.874 538.412 327.074 537.433 325.21C533.623 317.938 531.636 309.85 531.643 301.64C531.643 301.23 531.643 300.83 531.643 300.43C531.904 289.567 535.637 279.072 542.295 270.485C548.953 261.897 558.187 255.668 568.643 252.71C572.636 251.61 576.744 250.985 580.883 250.85H582.403C589.076 250.846 595.684 252.157 601.85 254.707C608.016 257.258 613.62 260.998 618.34 265.715C623.06 270.431 626.805 276.032 629.36 282.196C631.916 288.36 633.232 294.967 633.233 301.64Z" fill="#508EBC"/>
<path d="M660.363 599.78C656.563 614.74 652.33 629.957 647.663 645.43C645.45 652.81 643.116 660.25 640.663 667.75C640.663 667.75 604.943 704.96 518.663 667.75C518.663 667.75 515.863 659.86 511.663 645.43C508.523 634.53 504.613 619.92 500.533 602.14C500.533 602.14 532.653 615.85 578.243 615.85C606.407 615.947 634.313 610.486 660.363 599.78V599.78Z" fill="#AFC0E0"/>
<path d="M647.663 645.43C645.45 652.81 643.116 660.25 640.663 667.75C640.663 667.75 604.943 704.96 518.663 667.75C518.663 667.75 515.863 659.86 511.663 645.43C511.653 645.43 599.593 670.73 647.663 645.43Z" fill="#E3E8F4"/>
<path opacity="0.2" d="M568.673 252.64L568.563 252.72L531.663 300.36C531.663 300.76 531.663 301.16 531.663 301.57C531.656 309.779 533.643 317.868 537.453 325.14L580.933 250.78L568.673 252.64Z" fill="white"/>
<path opacity="0.2" d="M580.453 295.64L550.233 340.89C546.601 337.899 543.398 334.423 540.713 330.56L576.713 291.92L580.453 295.64Z" fill="white"/>
<path opacity="0.2" d="M537.973 667.76C537.973 667.76 529.353 643.45 519.873 602.15C499.003 511.31 473.973 338.22 527.303 160.43C541.638 112.324 561.381 65.998 586.153 22.3398C579.383 12.8498 575.153 8.00977 575.153 8.00977C546.422 55.7827 523.843 106.995 507.953 160.43C454.623 338.22 479.653 511.31 500.523 602.15C510.003 643.45 518.623 667.76 518.623 667.76C552.713 682.45 578.903 685.53 598.123 683.89C581.703 682.64 561.763 678.01 537.973 667.76Z" fill="white"/>
<path d="M653.22 152.43C571.95 191.34 507 152.43 507 152.43C522.899 98.9907 545.488 47.775 574.23 0C574.23 0 619.79 52.31 653.22 152.43Z" fill="#AFC0E0"/>
</svg>
