<svg id="Grupo_1" data-name="Grupo 1" xmlns="http://www.w3.org/2000/svg" xmlns:xlink="http://www.w3.org/1999/xlink" width="366.399" height="344.825" viewBox="0 0 366.399 344.825">
  <defs>
    <linearGradient id="linear-gradient" x1="-83.667" y1="127.861" x2="-2.25" y2="4.431" gradientUnits="objectBoundingBox">
      <stop offset="0.071" stop-color="#05b6b4"/>
      <stop offset="1" stop-color="#00ebeb"/>
    </linearGradient>
    <linearGradient id="linear-gradient-2" x1="-39.709" y1="4.661" x2="-38.098" y2="4.661" gradientUnits="objectBoundingBox">
      <stop offset="0.341" stop-color="#00399d"/>
      <stop offset="0.569" stop-color="#94eaff"/>
    </linearGradient>
    <linearGradient id="linear-gradient-3" x1="0.043" y1="1.195" x2="0.557" y2="0.297" gradientUnits="objectBoundingBox">
      <stop offset="0.071" stop-color="#c5e3ff"/>
      <stop offset="1" stop-color="#fff"/>
    </linearGradient>
    <linearGradient id="linear-gradient-4" x1="0.247" y1="-0.146" x2="0.909" y2="1.051" gradientUnits="objectBoundingBox">
      <stop offset="0.71" stop-color="#cecee9"/>
      <stop offset="0.765" stop-color="#6f73b1"/>
    </linearGradient>
  </defs>
  <g id="Layer_4" data-name="Layer 4">
    <path id="Trazado_1" data-name="Trazado 1" d="M91.325,216.45a2.915,2.915,0,0,1-1.425-1.8,2.989,2.989,0,0,1,4.375-3.4l15.749,9a2.917,2.917,0,0,1,1.426,1.8,2.989,2.989,0,0,1-4.375,3.4Z" fill="#e5eff5" fill-rule="evenodd"/>
  </g>
  <g id="Capa_160" data-name="Capa 160">
    <path id="Trazado_2" data-name="Trazado 2" d="M287.149,198.9v-.575l.526.3Q287.416,198.762,287.149,198.9Z" fill-rule="evenodd" fill="url(#linear-gradient)"/>
  </g>
  <g id="Capa_159" data-name="Capa 159">
    <path id="Trazado_3" data-name="Trazado 3" d="M95.8,85.075l-.7-.4.55-1.275-.05-.1.2-.475ZM267.35,240.85V228.6a5.137,5.137,0,0,1,.35.6,3.433,3.433,0,0,1,.35,1.3,17.781,17.781,0,0,1,.05,6.9Q267.813,239,267.35,240.85Z" fill="#252525" fill-rule="evenodd"/>
  </g>
  <g id="Capa_158" data-name="Capa 158">
    <path id="Trazado_4" data-name="Trazado 4" d="M247.45,90.25a4.645,4.645,0,0,0-.075-.725c.024.1.05.187.075.275Z" fill="#eceaea" fill-rule="evenodd"/>
  </g>
  <g id="Capa_157" data-name="Capa 157">
    <path id="Trazado_5" data-name="Trazado 5" d="M286.75,197.75q.209-.447.4-.875V198.9c-.244.132-.494.266-.75.4a6.9,6.9,0,0,0-.649.5l-.15-.2Q286.249,198.6,286.75,197.75Zm-.875,74.75-2.851,1.675q-.094-1.806-.074-3.625.1-3.3.15-6.5a3.139,3.139,0,0,0,.1-.75Q284.452,267.863,285.875,272.5Z" fill="#6f6f6f" fill-rule="evenodd"/>
  </g>
  <g id="Capa_156" data-name="Capa 156">
    <path id="Trazado_6" data-name="Trazado 6" d="M115.45,65.725l-9.9-5.375a5.578,5.578,0,0,1-2.6-4.9v-9.8l12.5,7.275v12.8Z" fill="#fd9512" fill-rule="evenodd"/>
  </g>
  <g id="Capa_155" data-name="Capa 155">
    <g id="Capa_226" data-name="Capa 226">
      <g id="Layer_432" data-name="Layer 432">
        <g id="Layer_433" data-name="Layer 433">
          <g id="Layer_446" data-name="Layer 446">
            <path id="Trazado_7" data-name="Trazado 7" d="M265.9,253.375l-120.8-69.7a10.535,10.535,0,0,0,.4-1.575,20.345,20.345,0,0,0,.325-4.9c.068-.027.134-.052.2-.075L254.6,239.8V216.525q4.252,4.053,11.4,3.225a21.49,21.49,0,0,0,.3,5.9,8.9,8.9,0,0,0,.45,1.75l.3.8a3.56,3.56,0,0,1,.3.4v12.25q-.35,1.4-.8,2.95A57.5,57.5,0,0,0,265.9,253.375Z" fill-rule="evenodd"/>
          </g>
          <g id="Layer_445" data-name="Layer 445">
            <path id="Trazado_8" data-name="Trazado 8" d="M267.35,210.9q-5.521,1.187-8.15-2.15c-.07-.117-.137-.234-.2-.35-.1-.2-.2-.417-.3-.65l-1.85-14.9q0-.551.049-1.15a1.121,1.121,0,0,1,.1-.5,19.125,19.125,0,0,1,.149-2.35,15.144,15.144,0,0,1,.2-1.7,4.278,4.278,0,0,0-.826-3l1.776-1.05a.467.467,0,0,0,.325-.1l2.075-1.25q.7-.15.7-1.55V161.75a3.908,3.908,0,0,0-2.049-3.6l-4.75-2.75V119.95l-22.025-12.725c-.048-.343-.1-.684-.176-1.025a4.136,4.136,0,0,0-.7-1.5,4.159,4.159,0,0,1-.75-1.4,26.568,26.568,0,0,1,4.55-2.55q.651-.3,1.95-1h.025l29.875,17.1V210.9Z" fill-rule="evenodd"/>
          </g>
          <g id="Layer_444" data-name="Layer 444">
            <path id="Trazado_9" data-name="Trazado 9" d="M115.45,118.15l-5.875-3.3L114,100.7l1.45-4.625Z" fill-rule="evenodd"/>
          </g>
          <g id="Layer_443" data-name="Layer 443">
            <path id="Trazado_10" data-name="Trazado 10" d="M117.45,167.75,96.8,155.825,104.525,131a5.011,5.011,0,0,0,1.025.75l9.9,5.55v22.15l2.25,1.3q-.226.957-.4,2.1A15.031,15.031,0,0,0,117.45,167.75Z" fill-rule="evenodd"/>
          </g>
          <g id="Layer_442" data-name="Layer 442">
            <path id="Trazado_11" data-name="Trazado 11" d="M130.8,37.7l.05-.1.1.05Z" fill-rule="evenodd"/>
          </g>
          <g id="Layer_441" data-name="Layer 441">
            <path id="Trazado_12" data-name="Trazado 12" d="M130.524,48.3l1.625-5.15h-.1l1.025-3.175,84.8,48.55q-.176.213-.375.425-.651.6-1.4,1.2A8.244,8.244,0,0,0,213.95,95a12.9,12.9,0,0,0-.1,1.4Z" fill-rule="evenodd"/>
          </g>
          <g id="Layer_440" data-name="Layer 440">
            <path id="Trazado_13" data-name="Trazado 13" d="M225.7,96.35a16.294,16.294,0,0,0-1.7,2.2,5.649,5.649,0,0,0-.55,1.1,8.791,8.791,0,0,0-1.051-1.9,1.29,1.29,0,0,1,1-1.05,7.412,7.412,0,0,1,1.6-.35Z" fill-rule="evenodd"/>
          </g>
          <g id="Layer_439" data-name="Layer 439">
            <path id="Trazado_14" data-name="Trazado 14" d="M95.8,33.7V18.65l4,2.3Z" fill-rule="evenodd"/>
          </g>
          <g id="Layer_438" data-name="Layer 438">
            <path id="Trazado_15" data-name="Trazado 15" d="M102.4,63.925v-18.6l.55.325v9.8a5.578,5.578,0,0,0,2.6,4.9l9.9,5.375v5.75Z" fill-rule="evenodd"/>
          </g>
          <g id="Layer_437" data-name="Layer 437">
            <path id="Trazado_16" data-name="Trazado 16" d="M108.95,92.7,95.8,85.075v-2.25L98.5,76.5q-.3-.35-.55-.6l-.05-.1a.616.616,0,0,1-.25-.15,11.228,11.228,0,0,1,1.95-1.6q1.352-.888,1.95-4.175l12.4,7.175-.9,2.7H113Z" fill-rule="evenodd"/>
          </g>
          <g id="Layer_436" data-name="Layer 436">
            <path id="Trazado_17" data-name="Trazado 17" d="M102.3,113.8l-6.5-3.775V91.55l11.45,6.6-.85,2.7h-.1Z" fill-rule="evenodd"/>
          </g>
          <g id="Layer_435" data-name="Layer 435">
            <path id="Trazado_18" data-name="Trazado 18" d="M95.8,134.325v-17.85l4.8,2.775Z" fill-rule="evenodd"/>
          </g>
          <g id="Layer_434" data-name="Layer 434">
            <path id="Trazado_19" data-name="Trazado 19" d="M106.25,24.625l20.45,11.7L124.1,44.6l-8.649-5v6.95l-13.55-7.9,2.35-7.3h-.1Z" fill-rule="evenodd"/>
          </g>
        </g>
      </g>
    </g>
  </g>
  <g id="Capa_154" data-name="Capa 154">
    <path id="Trazado_20" data-name="Trazado 20" d="M104.525,131l4.225-13.55.825-2.6,5.875,3.3V137.3l-9.9-5.55A5.011,5.011,0,0,1,104.525,131Z" fill="#f6c" fill-rule="evenodd"/>
  </g>
  <g id="Capa_153" data-name="Capa 153">
    <path id="Trazado_21" data-name="Trazado 21" d="M230.8,93.4a4.8,4.8,0,0,1-1.151-.55.143.143,0,0,1-.1-.05L219.2,86.85,216.1,85a7.94,7.94,0,0,1-3.05-2.6l-4.7-8.75L206.3,69.8q-.7-1.4,1.6-.05L220.4,77l.951.5a11.021,11.021,0,0,1,1.45,1,5.2,5.2,0,0,1,1.15,1.1,4.6,4.6,0,0,1,.35.5.141.141,0,0,0,.05.1l6.75,12.6Q231.549,93.6,230.8,93.4ZM86.45,164.125v-3.1l.8.475-.3.85H87Z" fill="#595959" fill-rule="evenodd"/>
  </g>
  <g id="Capa_152" data-name="Capa 152">
    <path id="Trazado_22" data-name="Trazado 22" d="M251.95,120.7a2.1,2.1,0,0,1,1.05,1.9v5.15q0,1.35-1.05.65l-4.551-2.45a2.342,2.342,0,0,1-1.049-2V118.8q0-1.3,1.049-.65ZM128.25,55.575l1.375-4.35L133.85,53.6a2.1,2.1,0,0,1,1.049,1.9v5.15q0,1.35-1.049.65l-4.55-2.45a2.341,2.341,0,0,1-1.05-2Z" fill="#eeeded" fill-rule="evenodd"/>
  </g>
  <g id="Capa_151" data-name="Capa 151">
    <path id="Trazado_23" data-name="Trazado 23" d="M223.85,105.65c.033.1.066.2.1.3a45.354,45.354,0,0,1,.2,4.55q0,.4-.1,4.45-.073.476-.151.925L221.85,114.7q.331-1.2.5-1.9.448-1.85.65-3.25.249-.75.45-1.45ZM120.475,56.15l-5.025-2.9v-.325l5.1,2.975Z" fill="#2158ff" fill-rule="evenodd"/>
  </g>
  <g id="Capa_150" data-name="Capa 150">
    <path id="Trazado_24" data-name="Trazado 24" d="M223.9,115.875q-.777,5.031-1.1,6.775-.1.35-.2.75l-.4-.3a3.984,3.984,0,0,0-1.65-.6,14,14,0,0,1,.1-2.3,26.8,26.8,0,0,1,.851-4.2q.2-.712.35-1.3Z" fill="#ff2121" fill-rule="evenodd"/>
  </g>
  <g id="Capa_149" data-name="Capa 149">
    <path id="Trazado_25" data-name="Trazado 25" d="M146.85,92.45V99l2.549,1.3V93.85Zm0,10.6v6.55l2.549,1.3v-6.5Zm5.4,11.55q-.5.3-.5,1.5v3.35l-.851.25a18.543,18.543,0,0,0-1.5,1.375V115l-2.549-1.35v6.5l2.3,1.175a6.117,6.117,0,0,0-1.375,2.175l-.924-.5v5.225c-.017.037-.034.079-.05.125a.793.793,0,0,0-.026.125c-.044.007-.086.016-.125.025q-1.4,2.6-2.75,5.25-1.3,2.6-2.649,5.25-.9,1.8-1.851,3.65a8.332,8.332,0,0,0-.574,1.25q-2.746-4.162-7.525-1.25-6.3,3.851-6,8.9a4.515,4.515,0,0,0,.05.65v.15l.075.375q-1.152.865-2.175,1.725a13.806,13.806,0,0,1-2.05,1.4,1.522,1.522,0,0,0-.25.05l-.051.025a2.825,2.825,0,0,0-1.2.575q-1.271,1.077-2,4.25l-2.25-1.3V96.075L119.7,82.5l.1-.1.8-2.8h.1l2.35-7.475L214.925,125.2c-.007.048-.015.1-.026.15q-.1.9-.4,2.45-.3,1.75-.4,2.5-.159.247-.375.6l-11.275-6.35v6.5l7.8,4.45a7.99,7.99,0,0,0-1,2.05,7.074,7.074,0,0,0-.275,1.325L201.4,134.45v6.5l14,8.2V146.4a5.488,5.488,0,0,0,.7.15,14.457,14.457,0,0,0,3.8,0,10.426,10.426,0,0,0,3.6-1.2,4.076,4.076,0,0,0,1.55-2.2,22.569,22.569,0,0,0,.65-2.65v1.25a2.89,2.89,0,0,0,1.3.5,1.823,1.823,0,0,0,1.4-.5,17.822,17.822,0,0,1,.3-4.6,18.509,18.509,0,0,1,.949-3.45L254.6,148.1v7.3l-11.35-6.55q-1.05-.551-1.55-.3h-.051l-2.349,1.4h-.05L236.9,151.3q-.549.3-.549,1.55v18.4a3.91,3.91,0,0,0,2.049,3.6l4.6,2.65v.05l8.125,4.675q.062.315.125.65a4.427,4.427,0,0,0-.75.475,3.97,3.97,0,0,0-1.5,2.85q-1.6,14.09.774,22.075l-.024-.025c.043.121.085.246.125.375q.179.548.375,1.075l1.9,3.7a14.251,14.251,0,0,0,2.451,3.125V239.8L146.024,177.125a7.111,7.111,0,0,0,.875-.475,18.447,18.447,0,0,1,2.75-1.5,14.214,14.214,0,0,0,1.7-.8q1.321-.74,2.625-1.575l7.174,4.175V170.4l-1.849-1.1q.75-.45,1.65-.9.615-.342,1.275-.7l7.575,4.4v-6.6l-3.475-2q.794-1.153,1.55-2.45l4.175,2.45V157l-1.5-.875q.772-1.461,1.55-2.975.949-2,1.85-3.9a10.285,10.285,0,0,1,.6-1.15,4.893,4.893,0,0,0-.575-3.25l1.325-.8q.666-.143.7-1.375v3.475l4.55,2.55v-6.55l-4.35-2.475a5.28,5.28,0,0,0,.05-.925,6.373,6.373,0,0,0-.25-1.45V126.5l3.75,2.2v-6.55L176,119.9v4.65a3.721,3.721,0,0,0-2-3.3l-10.4-6V112.8l-9.951-5.85v6.55l.276.15Zm-.5,14.725a.813.813,0,0,0-.05-.075,3.959,3.959,0,0,0-.85-.575,5.531,5.531,0,0,1,.9-.775Zm-2.976,14.025q.292-.72.576-1.45.8-1.95,1.6-4,.479-1.473.925-2.875a3.9,3.9,0,0,0,1.774,2.325v5.7l11.125,6.45q-1.215,1.857-2.375,3.65-1.149,1.751-2.3,3.45a10.078,10.078,0,0,0-.85,1.55,4.546,4.546,0,0,0-.45.65l.05.1c-.09.046-.182.1-.275.15l-4.926-2.85v5.375a18.84,18.84,0,0,1-2.649.875q-1.108.384-2.175.85l-1.975-1.05v1.95c-.387.192-.77.391-1.15.6q-1.5.851-2.9,1.75c-.171.12-.347.237-.526.35-.063-.088-.122-.171-.174-.25q-.4-.5-.9-1.05a21.37,21.37,0,0,0-1.95-1.8q-1.4-1.05-3.1-2.2l.551-3.575q.713-.585,1.449-1.175,1.15-1,1.851-1.5a10.861,10.861,0,0,1,1.45-1.1q.9-.551,1.85-1.25a9.633,9.633,0,0,0,2.15-2.65q.736-1.23,1.4-2.6v1.1l2.549,1.3V143.7Zm9.776,5.8-4.9-2.85v6.6l4.9,2.8Zm-11.7,9.65,2.549,1.3v-6.45l-2.549-1.35Zm32.2-47.8v6.5l2.55,1.5v-6.55Zm4.55,9.15,2.549,1.3V115l-2.549-1.35ZM177,116.3v-6.5l-2.4-1.45v6.5Zm-6.65-10.35-16.7-9.7v6.55l16.7,9.65Zm-54.9-34.475V67.75l1.175.675-.976,3.175Zm102.7,67.225a7.8,7.8,0,0,1-1.3,1.3,2.058,2.058,0,0,1-.3.25,3.747,3.747,0,0,0,.849-1.1,15.965,15.965,0,0,0,.651-2.8,14.747,14.747,0,0,1,.65-2.85,1.763,1.763,0,0,0,.3,1,1.738,1.738,0,0,0,.649.55,8.831,8.831,0,0,1-1.1,3.05A3.123,3.123,0,0,1,218.149,138.7Zm-3.625,3.45-.649-.4a11.935,11.935,0,0,0,1.575-.7,5.226,5.226,0,0,0,.75-.5q-.378.322-.85.7A6.392,6.392,0,0,0,214.524,142.15Zm-27.224-9.3,3.849,2.4V128.7l-3.849-2.3Zm3.55,5.45v6.5l3.25,2v-6.5Zm-1.7-.9-3.1-1.95v6.65l3.1,1.75Zm6.3,3.45v6.7l3.3,1.9v-6.6Zm-8.9,21.3,3.1,1.75v-6.65l-3.1-1.75Zm18.2.55,10.649,6.2v-6.6l-10.649-6.1ZM215.4,152.45l-4.5-2.55v6.5l4.5,2.7Zm-33.949-19.6v6.6l3.15,1.8v-6.5ZM174.6,155.1l8.2,4.85V153.3l-8.2-4.7Zm7.15,13.95,5.9,3.45V166l-5.9-3.4ZM176,179v6.5l8.6,4.9v-6.45Zm8.6,1.7v-6.65l-6.25-3.65v6.55ZM164.7,179l8.55,4.95v-6.7l-8.55-4.9Zm47.3.95v6.6l3.4,2v-6.5Zm10.25-4.1-14-8.1v6.65l14,8.1Zm-32.7,7.65,7.05,4v-6.6l-7.05-3.95Zm1.8,4.3-4.2-2.45v6.55l4.2,2.55Zm1.85,7.75,4.15,2.3V191.3l-4.15-2.4ZM204.3,192l11.1,6.4v-6.65l-11.1-6.4Zm-4.95.4v6.5l4,2.5v-6.65Zm14.6,15.15,7.65,4.5V205.4l-7.65-4.35Zm-2.5-1.8v-6.6l-4-2.4v6.5Z" fill="#2f2f2f" fill-rule="evenodd"/>
  </g>
  <g id="Capa_147" data-name="Capa 147">
    <path id="Trazado_26" data-name="Trazado 26" d="M228.649,77.15a4.1,4.1,0,0,1-.549,1.7l-.65-.4q-2.3-1.3-3.3-.75l-1.349.8a11.021,11.021,0,0,0-1.45-1L220.4,77a11.29,11.29,0,0,1,1.951-1.1,12.722,12.722,0,0,0,2.7-1.65c.093-.219.184-.436.275-.65q3.183-7.524,3.375-8.1,1.7-3.851,3.3-6.85c.133.333.267.683.4,1.05a18.747,18.747,0,0,1,1.151,5.65,27.139,27.139,0,0,1-.7,3.65q-1.3,1.7-2,2.8a14.989,14.989,0,0,0-1.7,3.55c-.019.081-.061.223-.125.425-.03.133-.072.291-.125.475l-.049.1v.15A4.67,4.67,0,0,0,228.649,77.15ZM240.2,89.25a1.28,1.28,0,0,0,.2-.35,2.873,2.873,0,0,0-1.1.8c0,.033-.05.1-.151.2q-.2.25-.649.95l-.125.175a4.244,4.244,0,0,1-.775.825,1.69,1.69,0,0,1-1.2.25,2.57,2.57,0,0,1,.25-.75,5.36,5.36,0,0,1,.526-1c.086-.134.177-.267.275-.4a16.905,16.905,0,0,0,1.4-1.95,5.068,5.068,0,0,0-1.5,1.55,5.254,5.254,0,0,1-.5.6,2.418,2.418,0,0,1-1.1.7,1.849,1.849,0,0,1,.149-1.25,8.229,8.229,0,0,1,.6-1.2l-.9-.55a10.964,10.964,0,0,1,2.75-2.1q.5-.25.95-.45a6.923,6.923,0,0,1,2.45-.45,3.91,3.91,0,0,1,.85-.15h.9a4.019,4.019,0,0,0,.625-.075,2.019,2.019,0,0,0,1.024-.525l.351-.35.2-.15.2-.2.3-.3.3-.3a41.3,41.3,0,0,0,2.95-3.35l2.4-2.95q.949-1.2,1.4-1.7a2.437,2.437,0,0,0,.149-.25,3.313,3.313,0,0,0,.351-.3l.6-.5c.167-.167.316-.317.45-.45a4.223,4.223,0,0,0,3-2.35q.849-2.4.849-2.5,0-8.2-4.9-13.05a7.962,7.962,0,0,0-2.15-1.6,12.854,12.854,0,0,1,2.1-3.25.57.57,0,0,0,.1-.15c.066,0,.1-.017.1-.05a.332.332,0,0,1,.151-.15,20.376,20.376,0,0,1,4.55-3.7q.35.45,1,1.35.6.851.95,1.45a11.6,11.6,0,0,1,.65,4.35q.049.75.05,2.2a13.789,13.789,0,0,0,.149,2.2q.2,1.05.4,3.6a30.646,30.646,0,0,0,.4,3.65,15.53,15.53,0,0,0,.3,2.15q.15.7.4,2.1a11.036,11.036,0,0,1,.151,4.25,17.745,17.745,0,0,1-1.651,1.95q-1.549,1.65-1.75,1.95a17,17,0,0,1-2.9,2.9,19.778,19.778,0,0,1-1.95,1.45q-.651.45-1.4.95-2.6,1.65-3.449,2.25l-1.15.9a2.007,2.007,0,0,0-.3.25.609.609,0,0,0-.25.15l-.5.45q-.45.5-.9.95l.049.1a2.291,2.291,0,0,0,.1.25,2.562,2.562,0,0,0-.5.05q-.6.5-1.5,1.2a22.294,22.294,0,0,0-1.95,1.55q-.549.4-1.55,1.25-.179.148-.351.275a2.81,2.81,0,0,1-1.4.525,2.509,2.509,0,0,1,.475-1.075A4.827,4.827,0,0,1,241,91.25q.8-.649.9-.75a4.376,4.376,0,0,0,.75-.95,5.3,5.3,0,0,0-2.4,1.6q-.331.318-.625.575A4.818,4.818,0,0,1,237.9,92.75v-.4a.548.548,0,0,1,.051-.25,4.312,4.312,0,0,1,.574-1c.1-.128.205-.261.326-.4a.326.326,0,0,0,.15-.15,9.709,9.709,0,0,0,.75-.65l.149-.25A1.565,1.565,0,0,0,240.2,89.25ZM218.55,138.1a8.831,8.831,0,0,0,1.1-3.05c.035-.167.068-.35.1-.55q.2-1.5.35-2.25a8.72,8.72,0,0,1,.6-2.2c.157-.408.308-.834.449-1.275A45.032,45.032,0,0,0,222.6,123.4q.1-.4.2-.75.321-1.745,1.1-6.775.078-.45.151-.925.1-4.05.1-4.45a45.354,45.354,0,0,0-.2-4.55c-.034-.1-.067-.2-.1-.3a10.727,10.727,0,0,1-.75-3.45q-.008-.223,0-.45a6.884,6.884,0,0,1,.35-2.1,5.649,5.649,0,0,1,.55-1.1,16.294,16.294,0,0,1,1.7-2.2,24.381,24.381,0,0,1,2.175-2.1.408.408,0,0,0,.075-.05l.05-.05a8.3,8.3,0,0,0,1.45.85q.45.15.949.35.5.15,1.1.3.35.1,3.5.7a4.107,4.107,0,0,1,2,.7,12.155,12.155,0,0,1,.45,2.675v.025q-1.3.7-1.95,1a26.568,26.568,0,0,0-4.55,2.55,4.159,4.159,0,0,0,.75,1.4,4.136,4.136,0,0,1,.7,1.5c.071.341.128.682.176,1.025a18.414,18.414,0,0,1,.175,3.475,16.175,16.175,0,0,1-.8,4.45q-1.1,2.463-1.875,4.3-.408.99-.725,1.8a53.593,53.593,0,0,0-2.1,6.3v.05a33.224,33.224,0,0,0-1.425,3.875q-.085.283-.176.575-.249.7-1.25,4.3-1.3,3.2-3.75,3.2-.4,0-2.049-1.45Zm30.4-99.15a12.187,12.187,0,0,1-2.3,4.25,10.743,10.743,0,0,1-3.75,3.05,7.889,7.889,0,0,0-1.149.6,2,2,0,0,1-1.2.2,4.166,4.166,0,0,1-1.55-1,3.231,3.231,0,0,0-1.55-.95.816.816,0,0,1-.65-.65,3.5,3.5,0,0,1-.1-1,6.31,6.31,0,0,0,0-1.15,1.178,1.178,0,0,0-.5-.95,5.171,5.171,0,0,1-1.551-2.95l-.1-.3q.45.35,1.05.75a13.919,13.919,0,0,0,7.95,2.25,2.986,2.986,0,0,0,.95-.15.953.953,0,0,0,.3.05l.25-.1a2.754,2.754,0,0,0,.8-.65q.4-.45.65-.75l.2-.2a3.574,3.574,0,0,1,.949-.85,2,2,0,0,1,.9-.2l.4.1ZM68.7,85.6a.089.089,0,0,0-.1-.1,12.349,12.349,0,0,1-2.4-6.9V77.1l1.9,1.1a1.386,1.386,0,0,0,.1,1.15A9,9,0,0,1,68.7,85.6Zm-3.15,1.5q.549.95,1.05,1.9l-.6.3.2,1.65a8.4,8.4,0,0,0-1.85-.8.407.407,0,0,1,.1-.3,1.418,1.418,0,0,1-.7-1.4,1.936,1.936,0,0,1,.6-1.25A1.139,1.139,0,0,1,65.55,87.1Z" fill="#ffaa83" fill-rule="evenodd"/>
  </g>
  <g id="Capa_146" data-name="Capa 146">
    <path id="Trazado_27" data-name="Trazado 27" d="M125.85,154.7l-.425-1.975-.075-.375v-.15a4.515,4.515,0,0,1-.05-.65,6.091,6.091,0,0,0,.9.625,8.8,8.8,0,0,0,4.25.925q4.55,0,8.15-4.25.649-1,1.15-1.8-.05.8-.1,1.65a3.168,3.168,0,0,0-.049.5v.05q-.551.6-1.15,1.25-4.45,4.95-8.45,4.95A11.455,11.455,0,0,1,125.85,154.7ZM256.5,36.15h-.15l-.35.05a2.229,2.229,0,0,1-1.1-.05,5.888,5.888,0,0,0-1.949-1.6.437.437,0,0,0-.051.2.044.044,0,0,0-.049.05l-.35.85v.15a1.975,1.975,0,0,1-.25-.75,10.185,10.185,0,0,0-.1-2.65,10.419,10.419,0,0,0-1.7-3.1c-.034-.067-.067-.1-.1-.1a1,1,0,0,0,.25-.6,3.428,3.428,0,0,0-.7-2.35V26.2h-.049v-.05a3.079,3.079,0,0,0-1.451-1.1l-.049-.1h-.1a1.12,1.12,0,0,1,1.2-.7,5.5,5.5,0,0,1,2.9,1.4,11.891,11.891,0,0,1,4.15,9.6Zm-9.851-9.55a3.181,3.181,0,0,1,.5.3l.1.05a4.367,4.367,0,0,1,.45.4q.3.3.65.6l.6.85a1.084,1.084,0,0,0,.55.45,6.736,6.736,0,0,1,.7,2.7q0,.049-1.15,5.1-.251.65-.5,1.2a2,2,0,0,0-.9.2,3.574,3.574,0,0,0-.949.85l-.2.2q-.251.3-.65.75a2.754,2.754,0,0,1-.8.65l-.25.1a.953.953,0,0,1-.3-.05,16.918,16.918,0,0,1-2.15-.4,4.045,4.045,0,0,1-1.85-1.3l-.05-.1A11.9,11.9,0,0,1,236.7,38L235,36.4a4.2,4.2,0,0,1-.4-1.3,11.972,11.972,0,0,0,5.95,1.95,9.3,9.3,0,0,0,4.6-1.85q.852-.65,1.451-1.05a6.535,6.535,0,0,0,1.1-3.5,11.158,11.158,0,0,0-.551-1.85q-.5-1.549-.5-1.6ZM273.1,192.45a23.919,23.919,0,0,0,4.45,4.175,7.551,7.551,0,0,0,3.65,1.475,20.9,20.9,0,0,0,4.65-.2q.551-.1.9-.15-.5.851-1.15,1.85a3.372,3.372,0,0,1-.85.55q-.4.2-.75.35a.448.448,0,0,0-.2.05q-.351.1-.75.25l-.1.05a.144.144,0,0,0-.1.05,6.9,6.9,0,0,1-5.3-.9,9.19,9.19,0,0,1-1.35-1,6.337,6.337,0,0,1-.15-.85,5.748,5.748,0,0,0-1.35-3l.25,1.85-.5-.4-1.25-3.65A1.121,1.121,0,0,0,273.1,192.45Zm-.451-2v-.1a2.342,2.342,0,0,0-.049-.45q-.051-.949-.1-1.8.549.851,1.25,1.9a14.175,14.175,0,0,0,3.8,3.25,9.981,9.981,0,0,0,4.95,1.3,9.65,9.65,0,0,0,4.649-1,6.356,6.356,0,0,0,.9-.6,2.362,2.362,0,0,1-.1.65v.2l-.551,2.5c-.083.032-.166.065-.25.1a12.544,12.544,0,0,1-4.2.7,9.432,9.432,0,0,1-5.4-1.975A22.889,22.889,0,0,1,273.9,191.8ZM126.5,156q.3.1.8.25a20.045,20.045,0,0,0,4.349.1q3.2-.2,7.5-5.25a1.874,1.874,0,0,0-.049.45l-.4,1.1-.8,2.3-.449.4.25-1.7a4.972,4.972,0,0,0-1.25,2.75q-.051.4-.1.85a6.809,6.809,0,0,1-6.2,1.75.2.2,0,0,0-.149-.05l-.1-.05a5.084,5.084,0,0,0-.549-.175l-.15-.025c-.067-.067-.117-.1-.15-.1l-.05-.025a4.917,4.917,0,0,1-.65-.275,3.794,3.794,0,0,1-.8-.55Q126.949,156.8,126.5,156Z" fill="#452312" fill-rule="evenodd"/>
  </g>
  <g id="Capa_145" data-name="Capa 145">
    <g id="Capa_330" data-name="Capa 330">
      <g id="Capa_331" data-name="Capa 331">
        <g id="Capa_332" data-name="Capa 332">
          <g id="Capa_333" data-name="Capa 333">
            <g id="Capa_334" data-name="Capa 334">
              <g id="Capa_335" data-name="Capa 335">
                <g id="Capa_336" data-name="Capa 336">
                  <path id="Trazado_28" data-name="Trazado 28" d="M139.6,149.25a13.394,13.394,0,0,1-.451,1.85q-4.3,5.05-7.5,5.25a20.045,20.045,0,0,1-4.349-.1q-.5-.15-.8-.25-.35-.649-.65-1.3a11.455,11.455,0,0,0,4.15.75q4,0,8.45-4.95Q139.05,149.851,139.6,149.25Zm.15-2.2q-.5.8-1.15,1.8-3.6,4.249-8.15,4.25a8.8,8.8,0,0,1-4.25-.925,6.091,6.091,0,0,1-.9-.625q-.3-5.051,6-8.9,4.777-2.913,7.525,1.25.273.42.525.9a3.459,3.459,0,0,1,.4,1.65ZM256.5,36.15v-.9a11.891,11.891,0,0,0-4.15-9.6,5.5,5.5,0,0,0-2.9-1.4,1.12,1.12,0,0,0-1.2.7l-.075-.025-.225-.075-.1-.05q.349-.55.5-.75a.983.983,0,0,1,.85-.4,18.518,18.518,0,0,1,3.8.3,5.789,5.789,0,0,1,3.25,1.9,3.91,3.91,0,0,1,.7,1.3,9.419,9.419,0,0,0,.449,1.35,3.639,3.639,0,0,1,.8,1.75,5.906,5.906,0,0,1-.15,1.95q-.2.7-.651,2a8,8,0,0,0-.3,1.95A1.78,1.78,0,0,0,256.5,36.15Zm-7-6.9a.445.445,0,0,0,.2.05h.2a.408.408,0,0,0,.3-.1h.15c.033,0,.066.033.1.1a10.419,10.419,0,0,1,1.7,3.1,10.185,10.185,0,0,1,.1,2.65,1.975,1.975,0,0,0,.25.75c-.134.267-.25.5-.351.7a6.924,6.924,0,0,1-1.2,1.7,3.048,3.048,0,0,1-2,.75v-.6l-.4-.1q.25-.551.5-1.2Q250.2,32,250.2,31.95A6.736,6.736,0,0,0,249.5,29.25Zm-2.851-2.65v.6q0,.049.5,1.6a11.158,11.158,0,0,1,.551,1.85,6.535,6.535,0,0,1-1.1,3.5q-.6.4-1.451,1.05a9.3,9.3,0,0,1-4.6,1.85,11.972,11.972,0,0,1-5.95-1.95l-.05-.05v-.1a4.761,4.761,0,0,1,.65-2.7,14.819,14.819,0,0,1,1.65-2.35,10.248,10.248,0,0,1,4.1-3.3,5.976,5.976,0,0,1,5.1-.2c.134.033.25.067.349.1A1.847,1.847,0,0,1,246.649,26.6ZM272.5,188.1v-.65a3.976,3.976,0,0,1,.4-1.8q1.833-3.479,4.651-3.575a7.51,7.51,0,0,1,4,1.275,14.617,14.617,0,0,1,5.6,5.475,8.143,8.143,0,0,1,.9,4.125,6.356,6.356,0,0,1-.9.6,9.65,9.65,0,0,1-4.649,1,9.981,9.981,0,0,1-4.95-1.3,14.175,14.175,0,0,1-3.8-3.25Q273.049,188.95,272.5,188.1Zm14.649,8.775q-.19.428-.4.875-.35.05-.9.15a20.9,20.9,0,0,1-4.65.2,7.551,7.551,0,0,1-3.65-1.475,23.919,23.919,0,0,1-4.45-4.175q-.249-1-.451-2l1.25,1.35a22.889,22.889,0,0,0,3.651,3.325,9.432,9.432,0,0,0,5.4,1.975,12.544,12.544,0,0,0,4.2-.7c.084-.035.167-.068.25-.1Q287.279,196.582,287.149,196.875ZM64.45,75.7v.4a13.05,13.05,0,0,1-.9,4.45q-2.1,6.25-8.6,6.25a7.372,7.372,0,0,1-3.25-.7,7.355,7.355,0,0,1,.5-5.05A11.2,11.2,0,0,1,56.65,75Q61.2,71.85,64.45,75.7ZM53.15,89.2a14.3,14.3,0,0,0,3,.3q6.1,0,8.7-7.55a7.209,7.209,0,0,0,.4-1.5q.2,1.7.3,3.55a8.551,8.551,0,0,0-1.2,2.2,7.637,7.637,0,0,1-2.2,2.45,8.209,8.209,0,0,1-5.3,1.9,7.721,7.721,0,0,1-3.5-1.15Z" fill="#713d22" fill-rule="evenodd"/>
                </g>
              </g>
            </g>
          </g>
        </g>
      </g>
    </g>
  </g>
  <g id="Capa_142" data-name="Capa 142">
    <g id="Capa_342" data-name="Capa 342">
      <g id="Capa_343" data-name="Capa 343">
        <g id="Capa_344" data-name="Capa 344">
          <g id="Capa_345" data-name="Capa 345">
            <g id="Capa_346" data-name="Capa 346">
              <g id="Capa_347" data-name="Capa 347">
                <g id="Capa_348" data-name="Capa 348">
                  <g id="Capa_349" data-name="Capa 349">
                    <g id="Capa_350" data-name="Capa 350">
                      <g id="Capa_351" data-name="Capa 351">
                        <g id="Capa_352" data-name="Capa 352">
                          <g id="Capa_353" data-name="Capa 353">
                            <g id="Capa_354" data-name="Capa 354">
                              <g id="Capa_355" data-name="Capa 355">
                                <g id="Capa_356" data-name="Capa 356">
                                  <g id="Capa_357" data-name="Capa 357">
                                    <g id="Capa_358" data-name="Capa 358">
                                      <g id="Capa_359" data-name="Capa 359">
                                        <g id="Capa_360" data-name="Capa 360">
                                          <path id="Trazado_29" data-name="Trazado 29" d="M287.149,198.9q.267-.138.526-.275l.525-.275q4-1.65,5.85-.15,1.563,1.3,2.375,5.475.12.628.224,1.325.75,5.25-2.9,13.4-.5.9-1,1.8l-.05.15q-.1.4-.8,2.5a8.143,8.143,0,0,0-.049,4.2q.6,3.1,1.049,6.3a62.025,62.025,0,0,1-5.75,5.2,31.774,31.774,0,0,1-9.6,5.45,18.819,18.819,0,0,1-2.8.7,35.391,35.391,0,0,0,2.8-11.475q.033-.513.05-1.025.25-6.2,0-10.75-.025-.459-.05-.875a33.484,33.484,0,0,0-.45-4.625,16.149,16.149,0,0,0-2-3.7q-1.749-2.85-4.1-3.15a5.576,5.576,0,0,0-1.05,0A10.657,10.657,0,0,1,271,208a19.5,19.5,0,0,1,2.05-1.95q1.5-1.1,3.25-2.35l-.4,1.6a14.527,14.527,0,0,0,1.651.1h.05a9.718,9.718,0,0,0,8.95-4.25.2.2,0,0,1,.05-.15.159.159,0,0,1,.1-.15l-.45-.5-.3-.25-.2-.3a6.9,6.9,0,0,1,.649-.5C286.655,199.166,286.9,199.032,287.149,198.9ZM60.6,179.9l.2,8.1a2.635,2.635,0,0,1-.5,1.525,4.788,4.788,0,0,1-1.125,1.075,9.094,9.094,0,0,1-1.075.65,11.478,11.478,0,0,1-3.9,1.175c-.222.026-.446.051-.675.075q-.78.05-1.625.05l-.2-1.575L50.175,179.3,49.6,175a45.9,45.9,0,0,1,.8-14.8,7.562,7.562,0,0,0,.1-2.75,70.885,70.885,0,0,0-2.55-14.75q7.2,10.1,7.7,12.05a34.272,34.272,0,0,1,.775,4.575q.5,3.943.975,10.575c.009.074.017.149.025.225a38.933,38.933,0,0,0,1.15,6.125Q59.41,179.09,60.6,179.9ZM93.7,68.575,92.675,68,90.15,66.525l-.4-.225v.05L86.225,64.3,82.35,62.05V62L77.3,59.15a4.337,4.337,0,0,1-2.25-3.95V35.1q0-1.35.6-1.7.55-.25,1.65.35l6.9,4.05v-.05L94.85,43.9a4.541,4.541,0,0,1,1.775,1.775,4.393,4.393,0,0,1,.525,2.175V67.8c-.065.018-.131.034-.2.05a6.724,6.724,0,0,0-1.1.05q-.2-.9-1-.75A1.538,1.538,0,0,0,93.7,68.575Zm-9.125,84.95-.125.325-.5.95-1.925,3.65L77,168l-3.35-.7-5.95-4.15q4.058-4.86,7.275-8.775,1.4-1.7,2.65-3.225.471-.577.925-1.125,7.012-8.622,8.5-10.975a2.289,2.289,0,0,0,.4-.8q0-1.3-.4-1.5-.65-.2-1.15-.4a116.006,116.006,0,0,0-10.8,7.4l-4.425,1.7-1.775.675L66.1,147.2l-2.35.3a20.022,20.022,0,0,1-3.325-.95,19.086,19.086,0,0,1-5.275-3,3.746,3.746,0,0,1-1.5-1.95,7.76,7.76,0,0,1-.7-2.1,22.073,22.073,0,0,0,9.15,1.7,16.933,16.933,0,0,0,3.25-.5l1.45-.55.1-.05,1.8-1.2v-.1l.4-.15.85-1a.66.66,0,0,1,.3-.3l.8-1c.062-.1.12-.2.175-.3l1.025-3.125a8.7,8.7,0,0,0-.4-3.675,5.277,5.277,0,0,1-.3-1.1l1.075-.175,6.3-1.1L81.1,126.5l2.6-.45a15.378,15.378,0,0,1,3.35.35,11.891,11.891,0,0,1,3.5,1.35q2.8,1.7,2.8,3.95a18.5,18.5,0,0,1-.075,1.85q-.066.748-.2,1.475a17.549,17.549,0,0,1-1.225,4.15,19.646,19.646,0,0,1-1.5,2.725,41.527,41.527,0,0,0-2.15,3.95q-.75,1.35-1.5,3l-.25.45-.45.8ZM84.4,43.25q0-.6-.8-1.1L81.2,40.9a.846.846,0,0,0-.75.05,1.4,1.4,0,0,0-.45,1l-.1,4q0,.649-.2.8l-.35.1-.95-.2a.535.535,0,0,0-.1.3,1.224,1.224,0,0,0,.1.45l.95.85.35.55a1.916,1.916,0,0,1,.2,1.05l.1,4.1a4.131,4.131,0,0,0,.45,1.5,5.443,5.443,0,0,0,2.05,1.9l.75.45q.8.45.95.3c.133,0,.2-.117.2-.35a1.151,1.151,0,0,0-.15-.45l-.4-.5-.7-.6-.3-.5a4.505,4.505,0,0,1-.2-1.05V50.8l-.25-.65-.55-.8-1-.9,1,.25.55-.1.25-.45.05-4.35a.5.5,0,0,1,.4-.4h.25l.5.1a.564.564,0,0,0,.4.05Zm6.5,3.1-.8-.45q-.7-.45-.95-.35L89,45.9l.1.45,1.1,1.05.35.6a2.874,2.874,0,0,1,.15,1l.05,3.85.2.75.55.75,1.05.9L91.5,55l-.55.15-.2.4L90.7,59.5l-.05.3q0,.45-.35.5l-.3-.05-.5-.15h-.4a.535.535,0,0,0-.1.3,1.322,1.322,0,0,0,.75,1.15l2.4,1.2a.827.827,0,0,0,.75-.05,1.63,1.63,0,0,0,.5-1.05l.05-3.95q0-.6.2-.75L94,56.8l.6.15a.883.883,0,0,0,.4.1l.1-.35a1.611,1.611,0,0,0-.1-.45l-.4-.4L94,55.4l-.35-.55a3.906,3.906,0,0,1-.2-1.05l-.05-4.15a5.694,5.694,0,0,0-.5-1.5A6,6,0,0,0,90.9,46.35Z" fill="#ffd22e" fill-rule="evenodd"/>
                                        </g>
                                      </g>
                                    </g>
                                  </g>
                                </g>
                              </g>
                            </g>
                          </g>
                        </g>
                      </g>
                    </g>
                  </g>
                </g>
              </g>
            </g>
          </g>
        </g>
      </g>
    </g>
  </g>
  <g id="Capa_141" data-name="Capa 141">
    <path id="Trazado_30" data-name="Trazado 30" d="M228.1,78.85a4.1,4.1,0,0,0,.549-1.7,10.124,10.124,0,0,1,3.9,4.1.289.289,0,0,0,.1.2Zm-8.9,8,10.35,5.95a.143.143,0,0,0,.1.05q-1,.75-1.649,1.3l-.05.05a.408.408,0,0,1-.075.05,24.381,24.381,0,0,0-2.175,2.1H225a7.412,7.412,0,0,0-1.6.35,1.29,1.29,0,0,0-1,1.05,8.791,8.791,0,0,1,1.051,1.9,6.884,6.884,0,0,0-.35,2.1q-.008.227,0,.45a10.727,10.727,0,0,0,.75,3.45l-.4,2.45q-.1.3-.2.6a11.37,11.37,0,0,1-2.351-5.1q-.252-1.99-.424-3.375-.375-2.973-.375-3.075a6.578,6.578,0,0,1,.3-1.4,6.5,6.5,0,0,0,.3-1.4,5.182,5.182,0,0,0-2.3-4.75,3.925,3.925,0,0,1-.9-.65q.2-.211.375-.425A13.977,13.977,0,0,0,218.8,87.4C218.934,87.233,219.066,87.05,219.2,86.85Zm1.35,35.65a4.181,4.181,0,0,0,.6.7.93.93,0,0,1,.25.85,13.078,13.078,0,0,1-1.074,4.25q-.176.414-.375.85-.35.8-1.15,2.4a21.644,21.644,0,0,0-1.05,2.5,15.314,15.314,0,0,1-.65,1.55,2.119,2.119,0,0,1-1.2,1.15,3.748,3.748,0,0,1-.5.05,3.02,3.02,0,0,1-1.75-.6,3.186,3.186,0,0,1-1.4-1.9,7.454,7.454,0,0,1,.85-1.85,7.8,7.8,0,0,0,2,1.95c.1-.17.2-.336.3-.5q1.521-2.527,2.25-3.85.789-1.44,1.276-2.55a13.308,13.308,0,0,0,.625-1.65,7.865,7.865,0,0,0,.3-2.1q.15-2.149.15-2.2a4.636,4.636,0,0,1,.649-1.35A14,14,0,0,0,220.55,122.5ZM242.9,46.25a10.743,10.743,0,0,0,3.75-3.05,12.187,12.187,0,0,0,2.3-4.25,3.048,3.048,0,0,0,2-.75q1.8,1.6,4.1,3.3a2.512,2.512,0,0,1,.3.6h-.1a6.75,6.75,0,0,0-2.75-.55,3.984,3.984,0,0,0-3.9,2.5,6.21,6.21,0,0,0-.7,2.8,3.591,3.591,0,0,0,.151.9.145.145,0,0,1,.05.1,6.5,6.5,0,0,1-.8-.05,8.467,8.467,0,0,1-3.8-1.1A2.823,2.823,0,0,1,242.9,46.25ZM64.35,90.15a8.4,8.4,0,0,1,1.85.8v.2l.7,3.35-2.75.8h-.1l-1.6.3a7.481,7.481,0,0,1-4.25-1.2,3.112,3.112,0,0,1-1.65-1.95,3.718,3.718,0,0,1-.1-.8,9.719,9.719,0,0,0,1.05.25Q61.949,93.449,64.35,90.15Z" fill="#ce7c56" fill-rule="evenodd"/>
  </g>
  <g id="Capa_140" data-name="Capa 140">
    <path id="Trazado_31" data-name="Trazado 31" d="M63.75,147.5l-.575,4.3L61.75,162.55l-.9,3.95-.65,2.9.05,1.5.35,9q-1.188-.81-2.025-3.65a38.933,38.933,0,0,1-1.15-6.125c-.008-.076-.016-.151-.025-.225q-.474-6.631-.975-10.575a34.272,34.272,0,0,0-.775-4.575q-.5-1.95-7.7-12.05v-.1a8.037,8.037,0,0,1-.55-1.4l-.8-2.5a6.645,6.645,0,0,1-.15-3.85l2.55,2.3,3.95,2.35a7.76,7.76,0,0,0,.7,2.1,3.746,3.746,0,0,0,1.5,1.95,19.086,19.086,0,0,0,5.275,3A20.022,20.022,0,0,0,63.75,147.5ZM102.4,45.325V64.95c0,.227-.008.436-.025.625q-.141.958-.725,1.075l-.4.225L100.9,65.6a2.059,2.059,0,0,0-1.8-1.25l-.65,1.9-.05-.15a1.523,1.523,0,0,1-1.25,1.7V47.85a4.393,4.393,0,0,0-.525-2.175A4.541,4.541,0,0,0,94.85,43.9L84.2,37.75v.05l-6.9-4.05q-1.1-.6-1.65-.35l5.2-2.95q.6-.35,1.75.3l4.45,2.575,7.5,4.35,5.6,3.225a4.226,4.226,0,0,1,2.25,3.9ZM67.7,163.15l-.3-.2,4.225-10.525,1.525-3.85.55-1.35,1.4-3.475a116.006,116.006,0,0,1,10.8-7.4q.5.2,1.15.4.4.2.4,1.5a2.289,2.289,0,0,1-.4.8q-1.487,2.354-8.5,10.975-.453.548-.925,1.125-1.248,1.526-2.65,3.225Q71.759,158.29,67.7,163.15Zm201.425,47.275q.178-.313.375-.625.249-.4.45-.7a5.576,5.576,0,0,1,1.05,0q2.349.3,4.1,3.15a16.149,16.149,0,0,1,2,3.7,33.484,33.484,0,0,1,.45,4.625q.024.416.05.875.25,4.55,0,10.75-.017.512-.05,1.025a35.391,35.391,0,0,1-2.8,11.475,15.641,15.641,0,0,1-7.4-.6c-.268-.094-.535-.2-.8-.3q.452-1.545.8-2.95.463-1.853.75-3.45a17.781,17.781,0,0,0-.05-6.9,3.433,3.433,0,0,0-.35-1.3,5.137,5.137,0,0,0-.35-.6,3.56,3.56,0,0,0-.3-.4l-.3-.8a8.9,8.9,0,0,1-.45-1.75,21.49,21.49,0,0,1-.3-5.9,31.152,31.152,0,0,0,6.35-1.5,4.133,4.133,0,0,0,2.4-2.15,3.979,3.979,0,0,0,.25-3.2,1.731,1.731,0,0,0-.25-.5,4,4,0,0,0-1.9-1.95,4.124,4.124,0,0,0-3.2-.2C269.471,210.311,269.3,210.37,269.125,210.425Z" fill="#ffa92e" fill-rule="evenodd"/>
  </g>
  <g id="Capa_139" data-name="Capa 139">
    <path id="Trazado_32" data-name="Trazado 32" d="M267.35,210.9q.854-.183,1.775-.475c.171-.055.346-.114.524-.175a4.124,4.124,0,0,1,3.2.2,4,4,0,0,1,1.9,1.95l-11.25,3.55q-2.6,0-8.9-4.225-2.188-1.472-4.826-3.45Q247.4,200.289,249,186.2a3.97,3.97,0,0,1,1.5-2.85,4.427,4.427,0,0,1,.75-.475,3.509,3.509,0,0,1,.6-.225,4.429,4.429,0,0,1,1.8-.15,3.836,3.836,0,0,1,1.551.5,3.911,3.911,0,0,1,.85.65q-.184.434-.35.9a25.687,25.687,0,0,0-1.1,4.3,56.44,56.44,0,0,0-.7,9.55q0,.095.7,2.275.406,1.259,1.049,3.225A10.084,10.084,0,0,0,259,208.4c.063.116.13.233.2.35Q261.828,212.088,267.35,210.9ZM126.5,156q.45.8,1.05,1.75l-.151.2a6.738,6.738,0,0,0-.6-.45q-.851-.45-1.651-.85a7.986,7.986,0,0,0-3.949-.775v-.025a13.806,13.806,0,0,0,2.05-1.4q1.023-.859,2.175-1.725l.425,1.975Q126.15,155.349,126.5,156Zm20.274-27.525a6.054,6.054,0,0,1,4.076.2,3.959,3.959,0,0,1,.85.575q-.9,1.9-1.9,4.2-.123.271-.4.9-.668,1.557-2.25,5.3-.374.89-.8,1.9a64.538,64.538,0,0,1-3.5,7.6q-.6.6-2.451,2.25-.881.659-1.7,1.25l.4-1.1a1.874,1.874,0,0,1,.049-.45,13.394,13.394,0,0,0,.451-1.85v-.05a3.168,3.168,0,0,1,.049-.5q.053-.851.1-1.65v-.6a3.459,3.459,0,0,0-.4-1.65q-.252-.48-.525-.9a8.332,8.332,0,0,1,.574-1.25q.951-1.849,1.851-3.65,1.349-2.65,2.649-5.25,1.352-2.65,2.75-5.25C146.688,128.491,146.73,128.482,146.774,128.475Zm18,21.025c.273-.412.547-.829.826-1.25q.949-1.455,1.924-2.9.655-1.005,1.326-2c.38-.051.748-.084,1.1-.1a5.074,5.074,0,0,1,3.675,1.175q.12.114.225.225l-.275.425q-1.024,1.632-2.125,3.525-.522.913-3.35,6.075-.431.767-.9,1.625c-.208.369-.407.728-.6,1.075q-1.8,3.17-2.75,4.7a8.257,8.257,0,0,1-1,1.375q-.7.551-2.7,1.95c-.315.187-.624.37-.924.55q-1.532.9-2.85,1.65-1.508.858-2.726,1.525a30,30,0,0,1-4.2,1.975,6.335,6.335,0,0,1-4.825.3q-.234-.062-.476-.15a5.257,5.257,0,0,1-3.549-3.55,10.493,10.493,0,0,0,1.674-.8c.179-.113.355-.23.526-.35q1.4-.9,2.9-1.75c.38-.209.763-.408,1.15-.6q.967-.486,1.975-.9,1.065-.467,2.175-.85a18.84,18.84,0,0,0,2.649-.875,20.392,20.392,0,0,0,1.951-.975q1.468-.78,2.975-1.55c.093-.053.185-.1.275-.15l-.05-.1a4.546,4.546,0,0,1,.45-.65,10.078,10.078,0,0,1,.85-1.55q1.149-1.7,2.3-3.45Q163.558,151.358,164.774,149.5ZM251.9,48.9a7.763,7.763,0,0,0-2.6,5.85,12.825,12.825,0,0,0,.8,3.3,12.349,12.349,0,0,1,.85,3.25q0,.65-1.2,1.55a3.92,3.92,0,0,1-2.15.9q-2.1,0-6.9-2.3a35.968,35.968,0,0,0-6.15-2.3,9.635,9.635,0,0,1-1-1.15l-.6-1.05A3.2,3.2,0,0,1,233,54.3a16.178,16.178,0,0,1,1.45-2.35c.067-.067.1-.117.1-.15l.15-.15c.067-.067.116-.117.15-.15a5.114,5.114,0,0,0,.549-.65l.451-.6a1.348,1.348,0,0,0,.25-.35,6.2,6.2,0,0,0,1.95.35q5.2,0,7.55-1.35a12.22,12.22,0,0,0,4.4.4,7.933,7.933,0,0,0,1.95-.45Zm7.1-3.25a5.832,5.832,0,0,0-1.05.1,15.185,15.185,0,0,0-2.2.55,10.282,10.282,0,0,0,1-2.5q.1-.3.2-.65.249.25.5.55Q258.35,44.85,259,45.65ZM83.425,87.525q.807-1.1,1.6-2.2,1.218-1.7,2.425-3.425.761-1.076,1.525-2.15,1.7-2.458,3.375-4.95a10.1,10.1,0,0,1,2.5-.15.455.455,0,0,0,.3,0,5.676,5.676,0,0,0,.65.175,2.988,2.988,0,0,0,.3.075l1.55.75c-.1.1-.188.195-.275.3a4.3,4.3,0,0,0-.575.8q-.447.687-1,1.6-1.056,1.706-2.5,4.2-.218.325-.5.775-.333.524-.75,1.225-.762,1.21-1.8,2.95-.195.321-.375.625A36.3,36.3,0,0,1,87.1,92.1a.392.392,0,0,1-.05.05q-1.595,1.95-3.125,3.675-2.436,2.739-4.725,4.925a50.1,50.1,0,0,1-5.475,4.6q-1.027.743-2.025,1.35a26.717,26.717,0,0,1-2.8,1.5q-.5-1.9.9-5.35,1.575-1.423,3.075-2.925,1.659-1.637,3.225-3.35A93.157,93.157,0,0,0,82.05,89.4Q82.743,88.461,83.425,87.525ZM77,168a1.509,1.509,0,0,0,1.2,1.7q3.25,1.25,3.25,4.25l-.7,1.05a6.04,6.04,0,0,1-1.15.65,3.485,3.485,0,0,1-2.625.175l-1.2-.7A6.092,6.092,0,0,1,75,174.35a8.644,8.644,0,0,0-2.85-2.4,14.344,14.344,0,0,1-4.8-3.425,13.027,13.027,0,0,1-2.1-3.075l.1-.8,2.05-1.7.3.2,5.95,4.15ZM51.8,195.8l.1-3.25q.844,0,1.625-.05c.229-.024.453-.049.675-.075a11.478,11.478,0,0,0,3.9-1.175,9.094,9.094,0,0,0,1.075-.65,4.788,4.788,0,0,0,1.125-1.075A2.635,2.635,0,0,0,60.8,188l4.75,2.05.25,1.6a7.723,7.723,0,0,1-.95.5,8.781,8.781,0,0,1-2.05.55c-.146.018-.3.034-.45.05a5.264,5.264,0,0,0-2.15,1.3,10.56,10.56,0,0,1-1.175,1.1,6.4,6.4,0,0,1-6.6.925C52.217,195.988,52.009,195.9,51.8,195.8Zm75.6,45.5-.649,5.75-4,1.85q.308-.4.6-.825.311-.476.6-.975a11.532,11.532,0,0,0,1.449-3.55l-.649-2.5.25.3Zm20.351,20.825a.312.312,0,0,1-.05.175,6.447,6.447,0,0,1-1.725,1.775,8.593,8.593,0,0,1-5.326,1.275q-1.437-.072-2.875-.075a62.714,62.714,0,0,0-6.6.325c-.193.012-.384.029-.575.05q.55-.17,1.2-.35a2.458,2.458,0,0,0,.25-.05q4.518-.813,6.05-3.55a6.053,6.053,0,0,0,.674-1.875,8.089,8.089,0,0,0,.125-1.625q2.145.528,3.726,1a15.289,15.289,0,0,1,3.925,1.6Q147.757,261.676,147.75,262.125ZM273.4,307.25q-.049,6.25,7.351,7.55.849.251,1.55.45a77.584,77.584,0,0,0-10.75-.35q-5.3.3-7.55-3.2-.4-.5,1.2-1.65Q266.85,308.9,273.4,307.25Zm17.351-9.95-4.3-2-.7-6.15,2.55.1.3-.4-.7,2.7c.03.121.063.238.1.35a12.427,12.427,0,0,0,1.45,3.45Q290.05,296.35,290.75,297.3Z" fill="#d1e7f4" fill-rule="evenodd"/>
  </g>
  <g id="Capa_138" data-name="Capa 138">
    <g id="Capa_225" data-name="Capa 225">
      <g id="Capa_227" data-name="Capa 227">
        <g id="Capa_228" data-name="Capa 228">
          <g id="Capa_229" data-name="Capa 229">
            <g id="Capa_224" data-name="Capa 224">
              <g id="Capa_223" data-name="Capa 223">
                <g id="Capa_230" data-name="Capa 230">
                  <g id="Capa_272" data-name="Capa 272">
                    <path id="Trazado_33" data-name="Trazado 33" d="M222.8,78.5l1.349-.8q1-.55,3.3.75l.65.4,4.549,2.6L237.6,84.3l1.7,1q-.45.2-.95.45a10.964,10.964,0,0,0-2.75,2.1l.9.55a8.229,8.229,0,0,0-.6,1.2,1.849,1.849,0,0,0-.149,1.25,2.418,2.418,0,0,0,1.1-.7,5.254,5.254,0,0,0,.5-.6,5.068,5.068,0,0,1,1.5-1.55,16.905,16.905,0,0,1-1.4,1.95c-.1.133-.189.266-.275.4a5.36,5.36,0,0,0-.526,1l-3.8,2.2a2.392,2.392,0,0,1-2.05-.15q.75.2.3-.6l-6.75-12.6a.141.141,0,0,1-.05-.1,4.6,4.6,0,0,0-.35-.5A5.2,5.2,0,0,0,222.8,78.5Z" fill="#333" fill-rule="evenodd"/>
                  </g>
                  <g id="Capa_271" data-name="Capa 271">
                    <path id="Trazado_34" data-name="Trazado 34" d="M255.55,70.25a11.069,11.069,0,0,0,1.05.65,5.627,5.627,0,0,1-1.4,1.95l-.15.15a.145.145,0,0,0-.05.1.563.563,0,0,0-.2.2h-.05a5.176,5.176,0,0,0-.4.45l-.6.5a3.313,3.313,0,0,1-.351.3,2.437,2.437,0,0,1-.149.25,13.771,13.771,0,0,1-4.45.65,15.761,15.761,0,0,1-9.85-3.25,12.972,12.972,0,0,1-2.65-2.5,4.16,4.16,0,0,1,1.4-1.95,7.981,7.981,0,0,0,4.65,4.65,16.252,16.252,0,0,0,6.75,1.15A10.291,10.291,0,0,0,253,73,3.746,3.746,0,0,0,255.55,70.25Z" fill="#333" fill-rule="evenodd"/>
                  </g>
                  <g id="Capa_270" data-name="Capa 270">
                    <path id="Trazado_35" data-name="Trazado 35" d="M239.149,89.9c.1-.1.151-.167.151-.2a2.873,2.873,0,0,1,1.1-.8,1.28,1.28,0,0,1-.2.35Z" fill="#333" fill-rule="evenodd"/>
                  </g>
                  <g id="Capa_269" data-name="Capa 269">
                    <path id="Trazado_36" data-name="Trazado 36" d="M286.6,296.6l-.15-1.3,4.3,2q3,4.5,7.85,3.45a1.416,1.416,0,0,0,1-.25,2.375,2.375,0,0,1-1.5,2,2.946,2.946,0,0,1-3.25-.55A29.429,29.429,0,0,0,286.6,296.6Z" fill="#333" fill-rule="evenodd"/>
                  </g>
                  <g id="Capa_268" data-name="Capa 268">
                    <path id="Trazado_37" data-name="Trazado 37" d="M281.1,318a10.9,10.9,0,0,1-2.55-.55l-.5-1.3a9.9,9.9,0,0,0-2.95.45q-8.7,2.149-11.1-4.9,2.25,3.5,7.55,3.2a77.584,77.584,0,0,1,10.75.35l4.4-.25A5.7,5.7,0,0,1,281.1,318Z" fill="#333" fill-rule="evenodd"/>
                  </g>
                  <g id="Capa_267" data-name="Capa 267">
                    <path id="Trazado_38" data-name="Trazado 38" d="M126.6,248.2a27.326,27.326,0,0,0-4.076,2.225,30.05,30.05,0,0,0-3.574,2.775,2.734,2.734,0,0,1-1,.65,3.126,3.126,0,0,1-2.051-.1,2.308,2.308,0,0,1-1.4-1.85,1.49,1.49,0,0,0,.95.2,7.145,7.145,0,0,0,2.2.15,6.281,6.281,0,0,0,4.226-2.225,10.466,10.466,0,0,0,.875-1.125l4-1.85-.025.125Z" fill="#333" fill-rule="evenodd"/>
                  </g>
                  <g id="Capa_266" data-name="Capa 266">
                    <path id="Trazado_39" data-name="Trazado 39" d="M126.55,265.4l3.55.2.5.05c.191-.021.382-.038.575-.05a62.714,62.714,0,0,1,6.6-.325q1.437,0,2.875.075a8.593,8.593,0,0,0,5.326-1.275A6.447,6.447,0,0,0,147.7,262.3a9.789,9.789,0,0,1-1.051,2.175q-2.762,4.051-9.349,2.425a7.656,7.656,0,0,0-1.651-.375,7.279,7.279,0,0,0-1.049-.075l-.326.875-.125.375q-.235.081-.474.15a7.313,7.313,0,0,1-3.675.25A5.374,5.374,0,0,1,126.55,265.4Z" fill="#333" fill-rule="evenodd"/>
                  </g>
                </g>
              </g>
            </g>
          </g>
        </g>
      </g>
    </g>
  </g>
  <g id="Capa_125" data-name="Capa 125">
    <path id="Trazado_40" data-name="Trazado 40" d="M52.9,88.75a12.312,12.312,0,0,1-1.2-2.65,7.372,7.372,0,0,0,3.25.7q6.5,0,8.6-6.25a13.05,13.05,0,0,0,.9-4.45v-.4a6.5,6.5,0,0,0,.6.7v.4q.1,1.8.2,3.65a7.209,7.209,0,0,1-.4,1.5q-2.6,7.55-8.7,7.55a14.3,14.3,0,0,1-3-.3Zm.85,1.1-.4-.45a7.721,7.721,0,0,0,3.5,1.15,8.209,8.209,0,0,0,5.3-1.9,7.637,7.637,0,0,0,2.2-2.45,8.551,8.551,0,0,1,1.2-2.2v.1l2.55,2.8.2.3h-.4q-1.9.45-2.2-.1h-.15a1.139,1.139,0,0,0-1.2.1,1.936,1.936,0,0,0-.6,1.25,1.418,1.418,0,0,0,.7,1.4.407.407,0,0,0-.1.3q-2.4,3.3-6.85,1.75a9.719,9.719,0,0,1-1.05-.25,5.18,5.18,0,0,1-.8-.5l-.9-.5Z" fill="#3d2b3c" fill-rule="evenodd"/>
  </g>
  <g id="Capa_120" data-name="Capa 120">
    <path id="Trazado_41" data-name="Trazado 41" d="M145.825,177.2a20.345,20.345,0,0,1-.325,4.9,10.535,10.535,0,0,1-.4,1.575v.025c-.1.267-.184.517-.25.75a6.139,6.139,0,0,0-.65.9,4.639,4.639,0,0,0-.3,1.3,16.976,16.976,0,0,0-.2,5.75c.032.2.066.4.1.6a60.208,60.208,0,0,0,1.5,6,10.551,10.551,0,0,1-7.075,2.5q-.281.006-.576,0l-1.8-19.4v-.25q-.089-2.252-.125-3.575-.075-1.685-.076-1.825a14.713,14.713,0,0,1,.75-4.9,10.409,10.409,0,0,1,1-2,5.446,5.446,0,0,1,3.8-2.9,4.1,4.1,0,0,1,.9,0c.052.079.111.162.174.25a10.493,10.493,0,0,1-1.674.8.622.622,0,0,1-.25.1,6.248,6.248,0,0,0-1.25.6,6.84,6.84,0,0,0-1.3,1.4,7.235,7.235,0,0,0-.95,3.6,3.2,3.2,0,0,0,1.95,3.55,8.192,8.192,0,0,0,4.45.8A6.892,6.892,0,0,0,145.825,177.2Z" fill="#343354" fill-rule="evenodd"/>
  </g>
  <g id="Capa_118" data-name="Capa 118">
    <g id="Layer_574" data-name="Layer 574">
      <g id="Layer_575" data-name="Layer 575">
        <path id="Trazado_42" data-name="Trazado 42" d="M137.649,201.5q-1.049-.1-2.149-.25-1.751-.35-3.351-.8a27.931,27.931,0,0,1-5.25-2.1,17.585,17.585,0,0,1-3.849-2.8,15.8,15.8,0,0,1-2.7-3.3c.043-.348.084-.7.125-1.05q.523-3.954,1.275-7.8a8.075,8.075,0,0,0,.2-1.75,9.08,9.08,0,0,0-.15-1.8c-.03-.146-.063-.279-.1-.4a15.269,15.269,0,0,1-.75-2.35l-.051-.15a18.445,18.445,0,0,1-.949-1.6,33.623,33.623,0,0,1-2.5-7.6,15.031,15.031,0,0,1-.15-4.9q.172-1.143.4-2.1.73-3.174,2-4.25a2.825,2.825,0,0,1,1.2-.575,2.905,2.905,0,0,1,.3-.05,7.986,7.986,0,0,1,3.949.775q.8.4,1.651.85a6.738,6.738,0,0,1,.6.45l-.449.55-.4.45a1.007,1.007,0,0,0,.1.25v.05a9.272,9.272,0,0,0,3.926,3.25,10.584,10.584,0,0,0,4.425.75,6.4,6.4,0,0,0,1.55-.2l-.4-1.45q1.7,1.15,3.1,2.2a21.37,21.37,0,0,1,1.95,1.8q.5.55.9,1.05a4.1,4.1,0,0,0-.9,0,5.446,5.446,0,0,0-3.8,2.9,10.409,10.409,0,0,0-1,2,14.713,14.713,0,0,0-.75,4.9q0,.141.076,1.825.037,1.325.125,3.575v.25Z" fill="#52517b" fill-rule="evenodd"/>
      </g>
    </g>
  </g>
  <g id="Capa_109" data-name="Capa 109">
    <g id="Layer_602" data-name="Layer 602">
      <g id="Layer_603" data-name="Layer 603">
        <g id="Layer_604" data-name="Layer 604">
          <g id="Layer_613" data-name="Layer 613">
            <g id="Layer_614" data-name="Layer 614">
              <g id="Layer_615" data-name="Layer 615">
                <g id="Layer_616" data-name="Layer 616">
                  <g id="Layer_617" data-name="Layer 617">
                    <g id="Layer_618" data-name="Layer 618">
                      <g id="Layer_619" data-name="Layer 619">
                        <g id="Layer_620" data-name="Layer 620">
                          <g id="Layer_621" data-name="Layer 621">
                            <path id="Trazado_43" data-name="Trazado 43" d="M145.9,205.95a48.457,48.457,0,0,1-.6,8.55q-.965,4.237-1.95,8.475-1.231,5.212-2.5,10.425-.18.738-.35,1.475-.384,1.682-.726,3.375-.462,2.258-.849,4.525-.263,1.544-.5,3.1-.456,3.17-.776,6.375a7.145,7.145,0,0,0-.1,1.7q.027.506.075,1a24,24,0,0,0,.425,2.7l.849.55a8.089,8.089,0,0,1-.125,1.625,6.053,6.053,0,0,1-.674,1.875q-1.532,2.736-6.05,3.55a2.458,2.458,0,0,1-.25.05q-.649.18-1.2.35l-.5-.05q.2-4.511.924-10,.183-1.354.4-2.775.4-2.7.925-5.625c.018-.107.035-.216.049-.325q.319-1.788.576-3.325.066-.339.125-.675.264-1.514.475-2.75.6-3.457.8-4.65c.044-.311.068-.5.075-.575q.273-1.7.475-3.25a58.547,58.547,0,0,0,.575-7.45,51.57,51.57,0,0,0-.375-5.975q-.369-3.02-1.075-6.425-1.3-6.6-1.9-11.35,1.6.45,3.351.8,1.1.15,2.149.25.3.006.576,0A10.551,10.551,0,0,0,145.3,199,55.108,55.108,0,0,1,145.9,205.95ZM125.45,233.1q-.051.349-.1.75v.45a.546.546,0,0,0-.05.25,3.158,3.158,0,0,0-.125.75,3.031,3.031,0,0,0-.026.4.541.541,0,0,0-.1.3,1.119,1.119,0,0,0-.05.35q-.066.889-.15,1.85c-.033.325-.066.659-.1,1v1.85l.649,2.5a11.532,11.532,0,0,1-1.449,3.55q-.289.5-.6.975-.292.422-.6.825a10.466,10.466,0,0,1-.875,1.125,6.281,6.281,0,0,1-4.226,2.225,3.058,3.058,0,0,1-.049-.4q-.036-.491-.05-3.2V245.9c0-.364.009-.739.025-1.125q.029-1.6.175-3.45.129-1.606.35-3.4.19-1.62.45-3.4.193-1.324.425-2.725.242-1.472.525-3.025.386-2.128.85-4.425.1-.507.2-1Q122,216.033,122.625,211q.063-.613.125-1.2.288.784.5,1.575c.037.106.07.214.1.325a38.527,38.527,0,0,1,.65,4.05q.15,1.249.35,4,.162,2.1.475,6.075.089.93.175,1.975.087.966.149,1.85.167,2.222.2,4Q125.4,233.4,125.45,233.1Z" fill="#ceab8b" fill-rule="evenodd"/>
                          </g>
                        </g>
                      </g>
                    </g>
                  </g>
                </g>
              </g>
            </g>
          </g>
        </g>
      </g>
    </g>
  </g>
  <g id="Capa_103" data-name="Capa 103">
    <path id="Trazado_44" data-name="Trazado 44" d="M129.85,217.9a5.944,5.944,0,0,1-.05-.75q-1.352,4.8-2.8,9.65a1.8,1.8,0,0,1-.075.225,1.588,1.588,0,0,1-.075.175q-.3,1.1-.6,2.15-.1.408-.2.825-.327,1.444-.6,2.925-.051.3-.1.55-.036-1.779-.2-4-.063-.885-.149-1.85-.087-1.046-.175-1.975-.313-3.974-.475-6.075-.2-2.749-.35-4a38.527,38.527,0,0,0-.65-4.05c-.03-.111-.063-.219-.1-.325q-.211-.79-.5-1.575a42.028,42.028,0,0,0,.4-5.25,16.9,16.9,0,0,1-.2-1.7,28.007,28.007,0,0,0,2.75,2.35,9.322,9.322,0,0,1,3.1,3.7,3.882,3.882,0,0,1,.25.65.448.448,0,0,1,.05.2,5.3,5.3,0,0,1,.15.7q0,.15.5,2.4a18.14,18.14,0,0,1,.25,2.425v.175Q130,215.5,129.85,217.9Z" fill="#826448" fill-rule="evenodd"/>
  </g>
  <g id="Capa_98" data-name="Capa 98">
    <path id="Trazado_45" data-name="Trazado 45" d="M139.774,238.25q.342-1.693.726-3.375L248.4,297.3q1.3.75,1.1,1.7.2.951-1.1,1.5l-1.349.95L181.3,339.4a4.472,4.472,0,0,1-4.3,0L2.6,238.5l-1.3-.75h.2q-1.5-.6-1.5-1.7,0-.75,1.3-1.7L39.925,212,38.4,216.85q-.221.085-.45.2L30.8,221.4q-.4.35-.55.35a6.534,6.534,0,0,0,.55.6v-.2l16.15,9.2v.2a2.528,2.528,0,0,0,2.65,0v-.2l7.3-4.15q.6-.15.6-.35l-.4-.4h-.2l-11.75-6.825.75-2.45,9.7,5.525a2.3,2.3,0,0,0,2.8,0l2.475-1.4,3.3,1.9-3.325,1.95c-.233.234-.417.35-.55.35a2.576,2.576,0,0,0,.55.4v-.2l5.425,3.125-.775,2.55L61.8,229.3a2.528,2.528,0,0,0-2.65,0l-7.7,4.3c-.1.266-.217.4-.35.4a.616.616,0,0,0,.35.15l7.7,4.35v.2a2.528,2.528,0,0,0,2.65,0l2.975-1.725,2.775,1.55L63.7,240.75c-.133.231-.266.349-.4.35.134,0,.267.135.4.4v-.2l7.5,4.35a2.6,2.6,0,0,0,2.8.15v-.15l7.55-4.35v.2l.55-.4c0-.1-.184-.284-.55-.55L74,236.4a2.61,2.61,0,0,0-2.45-.15l1.175-3.725a.621.621,0,0,1,.175.125l7.7,4.5a2.43,2.43,0,0,0,2.6,0l8.1-4.7-.4-.35-7.7-4.3a2.43,2.43,0,0,0-2.6,0l-7.55,4.3a1.567,1.567,0,0,1-.275.225l1.25-3.95L78.5,225.7c.4,0,.6-.066.6-.2l-.4-.35-3.075-1.8,1.175-3.725,7.35-4.225c.367-.133.55-.267.55-.4s-.183-.267-.55-.4l-4.9-2.8.8-2.55,6.55,3.7v.15a2.346,2.346,0,0,0,2.65-.15l3.35-1.9-.35-.35-7.55-4.35a2.945,2.945,0,0,0-2.25-.2.549.549,0,0,0-.35.2l-1.375.725,1.8-5.75L116.85,221.2q-.429,1.665-.826,3.325L110.1,221h.2a5.417,5.417,0,0,0-2.3-.2,1.693,1.693,0,0,0-.75.2l-2.8,1.7q-.348.4-.55.4a1.544,1.544,0,0,1,.55.15l7.35,4.35a2.877,2.877,0,0,0,3,.2l.575-.35q-.5,2.337-.925,4.675l-1.35-.775a3.314,3.314,0,0,0-2.65,0l-7.5,4.5a.579.579,0,0,1-.4.2,2.647,2.647,0,0,1,.4.55v-.2l7.5,4.35a2.52,2.52,0,0,0,2.65,0l.375-.225a46.611,46.611,0,0,0,.1,4.75l-5.925-3.425a2.8,2.8,0,0,0-2.8,0L97.5,246.2c-.267.234-.45.35-.55.35a6.275,6.275,0,0,0,.55.6v-.2l7.35,4.3a2.6,2.6,0,0,0,3,0l5.95-3.5q.172,1.4.425,2.8l-4.525,2.8q-.349.349-.551.35a2.648,2.648,0,0,0,.551.4v-.2l7.35,4.3a3.188,3.188,0,0,0,3,0h-.2l6.075-3.45q-.146,1.624-.276,3.275l-3.9,2.275q-.2.35-.4.35a.576.576,0,0,0,.4.2l3.625,2.025a3.6,3.6,0,0,0,1.175,2.525,5.374,5.374,0,0,0,3.45,2.7,7.313,7.313,0,0,0,3.675-.25l7.775,4.45a2.64,2.64,0,0,0,2.85.2l7.3-4.5h.2a1.576,1.576,0,0,0,.55-.4,3.549,3.549,0,0,1-.75-.2l-4.951-2.925A9.789,9.789,0,0,0,147.7,262.3a.312.312,0,0,0,.05-.175,2.289,2.289,0,0,0,2.149-.175v-.15l7.551-4.35v.2l.35-.35-.35-.4h-.2l-7.351-4.3a2.8,2.8,0,0,0-2.8,0l-7.5,4.3c-.266.266-.45.4-.55.4.1,0,.284.118.55.35v-.2l3.025,1.75q-1.581-.473-3.726-1l-.849-.55a24,24,0,0,1-.425-2.7,1.968,1.968,0,0,0,.274-.1h-.2l7.55-4.35v.2c.233-.134.35-.25.35-.35a1.155,1.155,0,0,0-.35-.6l-6.825-3.875q.237-1.557.5-3.1a2.951,2.951,0,0,0,1.425-.325l-.2.15,3-1.85v-.2l.4-.2c0-.1-.2-.216-.6-.35ZM75.75,198.45,70.1,195.2a5.38,5.38,0,0,1,2.6.45l3.325,1.925Zm-26.575,8.2L64.1,198.025l3.375,1.925-1.375.75a.434.434,0,0,1-.35.2,1.743,1.743,0,0,1,.35.55v-.15l7.35,4.175-1.875,6.1L66.3,214.6l-.35.4c0,.133.116.267.35.4l3.5,2-.6,1.95-20.3-11.8ZM71.95,208.4c.366-.233.55-.417.55-.55l-.55-.2-7.5-4.3a1.544,1.544,0,0,0-.6-.2,2.444,2.444,0,0,0-2.05.2l-7.7,4.3a.579.579,0,0,1-.4.2,2.647,2.647,0,0,1,.4.55v-.15l7.7,4.3a2.8,2.8,0,0,0,2.8,0h-.15l7.5-4.3Zm57.225,25.7a53.846,53.846,0,0,1-1.35,5.75L125.5,238.5h.2a3.434,3.434,0,0,0-.85-.3q.084-.96.15-1.85a1.119,1.119,0,0,1,.05-.35.541.541,0,0,1,.1-.3,3.031,3.031,0,0,1,.026-.4,2.834,2.834,0,0,0,2.375-.2ZM91.1,215.55a2.586,2.586,0,0,0,.55.4l7.35,4.3v.2a2.548,2.548,0,0,0,2.8-.2l2.85-1.7q.55-.15.55-.35l-.55-.2-7.55-4.3a2.2,2.2,0,0,0-2.05-.2,1.231,1.231,0,0,0-.55.2l-2.85,1.7A1.522,1.522,0,0,1,91.1,215.55Zm-4.85,1.7L78.7,221.6a4.806,4.806,0,0,0-.75.55,1.235,1.235,0,0,1,.55.2l7.55,4.1a2.548,2.548,0,0,0,2.8.2l7.5-4.3v.15q.4-.15.4-.35c0-.133-.133-.317-.4-.55l-7.5-4.35A2.441,2.441,0,0,0,86.25,217.25Zm43.25,14.875-3.45-1.95q.1-.417.2-.825.3-1.05.6-2.15a1.588,1.588,0,0,0,.075-.175l2.95,1.7Q129.738,230.429,129.5,232.125ZM141.85,244.9a1.733,1.733,0,0,1,.35.35l7.7,4.3a2.373,2.373,0,0,0,2.851,0h-.2l3-1.65v.15c.266-.1.4-.217.4-.35s-.134-.316-.4-.55l-7.5-4.35h.2a3.6,3.6,0,0,0-2.45-.2,1.582,1.582,0,0,1-.55.2l-3.05,1.7Q142.05,244.9,141.85,244.9Zm-96-.4,7.3,4.3a2.556,2.556,0,0,0,2.8.2v-.2l7.55-4.3v.2c.367-.134.55-.266.55-.4l-8.1-4.7a2.8,2.8,0,0,0-2.8,0l-7.5,4.35c-.133.234-.267.35-.4.35A.811.811,0,0,0,45.85,244.5Zm5.6-6.75q.6-.2.6-.4L28.75,224a1.92,1.92,0,0,0-.6-.15,1.726,1.726,0,0,0-2.05.15l-7.35,4.15c-.233.267-.417.4-.55.4a4.124,4.124,0,0,1,.55.55v-.2L41.3,241.85a2.08,2.08,0,0,0,2.65,0Zm-28-2.1-7.3-4.5h.2a1.693,1.693,0,0,0-.75-.2,5.044,5.044,0,0,0-2.3.2L5.8,235.5c-.232.231-.415.349-.55.35a2.8,2.8,0,0,1,.75.2l.35.35,6.95,3.95v.2a2.628,2.628,0,0,0,2.85-.2l7.3-4.3h.2l.4-.2-.4-.2Zm2.1,2.65L18,242.6a1.235,1.235,0,0,1-.55.2,2.611,2.611,0,0,0,.55.4l7.55,4.3v.2a2.546,2.546,0,0,0,2.8-.2l7.35-4.3h.15c.267-.134.4-.266.4-.4l-7.9-4.5A3.7,3.7,0,0,0,25.55,238.3Zm12.2,7.15-7.7,4.1q-.2.4-.4.4a.584.584,0,0,1,.4.2l7.7,4.3a2.311,2.311,0,0,0,2.65.2l7.7-4.3c.233-.133.35-.267.35-.4l-.35-.4-7.7-4.1A2.078,2.078,0,0,0,37.75,245.45ZM41.9,256.9a1.554,1.554,0,0,0,.55.4l7.3,4.3a2.36,2.36,0,0,0,2.85,0l7.5-4.3.55-.2-7.85-4.7a3.7,3.7,0,0,0-3.05-.2l-7.5,4.35Q42.051,256.9,41.9,256.9Zm16.15-5.25,7.3,4.3a2.893,2.893,0,0,0,2.85,0l7.3-4.3a1.633,1.633,0,0,0,.75-.4,1.94,1.94,0,0,1-.55-.15h-.2l-7.3-4.35a2.893,2.893,0,0,0-2.85,0l-7.85,4.5Q57.5,251.451,58.05,251.65Zm-.55,14.1q0,.15.55.15l55.8,32.55a2.528,2.528,0,0,0,2.65,0l7.1-4.35q.6,0,.6-.35l-.4-.4-56-32.15H68a3.694,3.694,0,0,0-2.8,0l-7.35,4.15Zm51.1-36.3.35-.35-.35-.4-7.55-4.3a2.441,2.441,0,0,0-2.6,0l-7.55,4.3q-.348.4-.55.4a1.248,1.248,0,0,1,.55.2l7.35,4.3a2.548,2.548,0,0,0,2.8.2v-.2l7.55-4.3Zm13.924,20.975A27.326,27.326,0,0,1,126.6,248.2q-.253,2.157-.475,4.375ZM108,257.45l-7.7,4.35q-.15.35-.35.35a3.793,3.793,0,0,1,.35.4l7.7,4.1v.2a2.184,2.184,0,0,0,2.45,0l7.7-4.3a2.341,2.341,0,0,0,.6-.4,1.153,1.153,0,0,1-.6-.35l-7.5-4.35A2.526,2.526,0,0,0,108,257.45Zm-2.05-1.85c.266-.267.4-.466.4-.6l-7.9-4.5a2.528,2.528,0,0,0-2.65,0l-7.5,4.35a1.244,1.244,0,0,1-.55.35,1.6,1.6,0,0,1,.55.2l7.5,4.3v.2a2.528,2.528,0,0,0,2.65,0v-.2l7.5-4.3Zm6.2,13.7.4.4v-.2l7.5,4.3a2.52,2.52,0,0,0,2.65,0l7.5-4.3q.75-.2.75-.4l-8.1-4.5a3.176,3.176,0,0,0-3,0l-7.3,4.35Zm23.5-2.775-1.375.8.326-.875A7.279,7.279,0,0,1,135.649,266.525ZM76.1,248.45l7.5,4.3a2.528,2.528,0,0,0,2.65,0l7.5-4.3v.2q.55-.4.55-.6,0-.15-.55-.35l-7.5-4.35a2.893,2.893,0,0,0-2.85,0l-7.5,4.35a1.582,1.582,0,0,1-.55.2A1.143,1.143,0,0,0,76.1,248.45Zm1.5,5.45-7.35,4.3a1.235,1.235,0,0,1-.55.2l.55.55v-.15l7.35,4.3a2.8,2.8,0,0,0,2.8,0l7.5-4.3v.15c.266-.233.4-.417.4-.55s-.183-.25-.55-.35L80.4,253.7A3.224,3.224,0,0,0,77.6,253.9Zm4.3,11.65a3.589,3.589,0,0,0,.4.35l7.7,4.15v.2a2.441,2.441,0,0,0,2.6,0l7.55-4.35c.233-.1.35-.216.35-.35s-.117-.317-.35-.55l-7.55-4.15a2.3,2.3,0,0,0-2.8,0L82.3,265A2.647,2.647,0,0,1,81.9,265.55ZM102,277a2.64,2.64,0,0,0,2.85.2V277l7.3-4.3a1.057,1.057,0,0,0,.75-.2c-.132,0-.316-.134-.549-.4h-.2l-7.5-4.3a2.52,2.52,0,0,0-2.65,0l-7.5,4.3c-.133.266-.267.4-.4.4a3.682,3.682,0,0,0,.4.35v-.15Zm34.4,6.2a2.156,2.156,0,0,0,.75.4l7.3,4.3a2.634,2.634,0,0,0,2.85.2v-.2l7.5-4.3v.15c.266-.233.4-.417.4-.55l-7.9-4.5a2.89,2.89,0,0,0-2.85,0l-7.5,4.3A1.222,1.222,0,0,1,136.4,283.2Zm6.2-6.55v.15c.367-.234.549-.416.549-.55l-8.049-4.7a2.893,2.893,0,0,0-2.85,0l-7.5,4.35c-.267.234-.45.35-.55.35a4.124,4.124,0,0,0,.55.55v-.15l7.5,4.3a2.893,2.893,0,0,0,2.85,0Zm-17.5,3c-.1,0-.286-.135-.55-.4h-.2l-7.3-4.5h.2a3.773,3.773,0,0,0-3.05.2l-7.5,4.3-.35.4.55.2,7.3,4.3a2.89,2.89,0,0,0,2.85,0l7.3-4.3A3.59,3.59,0,0,1,125.1,279.65Zm4.35,2.25a3.57,3.57,0,0,0-3,.2l-7.551,4.3h-.549a2.137,2.137,0,0,0,.75.4l7.35,4.3v.2a3.176,3.176,0,0,0,3,0h-.2l7.35-4.35c.367-.1.549-.217.549-.35s-.182-.267-.549-.4l-7.35-4.3Zm1.7,12,7.5,4.55a2.521,2.521,0,0,0,2.651,0l7.7-4.55.35-.15c0-.134-.184-.267-.55-.4l-7.5-4.3a2.088,2.088,0,0,0-2.651,0l-7.5,4.3a.574.574,0,0,1-.4.2A3.771,3.771,0,0,0,131.149,293.9Zm-12.25,7.35,10.151,5.8a2.625,2.625,0,0,0,2.849.2v-.2l7.3-4.1v.15l.4-.35-.4-.4-10.3-6a2.891,2.891,0,0,0-2.849,0l-7.3,4.15a1.153,1.153,0,0,1-.6.35A2.173,2.173,0,0,0,118.9,301.25Zm24.451-.2,7.5,4.15a2.08,2.08,0,0,0,2.65,0l7.5-4.15c.366-.133.55-.25.55-.35L153.5,296a2.528,2.528,0,0,0-2.65,0l-7.5,4.3c-.133.266-.267.4-.4.4A3.792,3.792,0,0,1,143.35,301.05Zm-9.75,8.85,7.85,4.5v.2a2.52,2.52,0,0,0,2.65,0v-.2l7.5-4.3h.2a1.592,1.592,0,0,1,.55-.2c-.1,0-.286-.135-.55-.4h-.2l-7.3-4.3a3.181,3.181,0,0,0-3,0l-7.35,4.3ZM85.3,239.8l7.3,4.3a2.642,2.642,0,0,0,2.85.2l7.3-4.3c.5-.134.75-.316.75-.55l-.55-.2-7.5-4.35a2.873,2.873,0,0,0-2.85,0l-7.3,4.35-.4.2Q84.9,239.6,85.3,239.8ZM186.2,265a2.087,2.087,0,0,0-2.25-.2.574.574,0,0,1-.4.2l-2.8,1.65a2.136,2.136,0,0,0-.75.4c.133.134.316.316.55.55v-.2l7.5,4.35a3.181,3.181,0,0,0,3,0H190.9l2.8-1.7v.2c.366-.267.55-.45.55-.55Zm-31.6-12.8a2.647,2.647,0,0,1,.4.55v-.15l7.7,4.3v.2a2.3,2.3,0,0,0,2.65-.2l3.35-1.9-.35-.15-7.55-4.5a2.678,2.678,0,0,0-2.25-.2.743.743,0,0,0-.55.2L155,252A.575.575,0,0,1,154.6,252.2Zm-3.15,12.05c.1.1.216.217.35.35l7.5,4.35a2.52,2.52,0,0,0,2.65,0l7.7-4.35v.2q.4-.4.4-.55l-8.1-4.7a2.52,2.52,0,0,0-2.65,0l-7.5,4.3C151.666,264.116,151.55,264.25,151.45,264.25Zm2.25,6-7.35,4.15c-.234.234-.416.35-.55.35a2.576,2.576,0,0,0,.55.4l7.35,4.3a2.8,2.8,0,0,0,2.8,0l7.35-4.3c.5-.133.75-.334.75-.6l-.6-.15-7.5-4.35A2.546,2.546,0,0,0,153.7,270.25Zm16.9-12.8-2.85,1.7c-.233.267-.417.4-.55.4a5.408,5.408,0,0,0,.55.35l7.35,4.35a3.188,3.188,0,0,0,3,0v.15l2.85-1.85.55-.2-.55-.4h-.2l-7.351-4.3a2.944,2.944,0,0,0-2.25-.2Zm.95,9.2L164,271l-.351.35,7.7,4.55a2.6,2.6,0,0,0,2.8.15l7.551-4.3v.2c.366-.266.55-.467.55-.6,0-.1-.184-.216-.55-.35l-7.551-4.35A2.428,2.428,0,0,0,171.55,266.65Zm12,16.35a2.6,2.6,0,0,0,3,0l7.349-4.3c.368-.134.551-.266.551-.4l-.35-.35h-.2l-7.349-4.35h.2a3.176,3.176,0,0,0-3,0l-7.5,4.35a1.146,1.146,0,0,1-.6.35,2.341,2.341,0,0,0,.6.4Zm-6.95-1.3-.35-.35L168.7,277a2.8,2.8,0,0,0-2.8,0l-7.349,4.35c-.234.233-.417.417-.55.55a.743.743,0,0,0,.55.2l7.349,4.3a2.3,2.3,0,0,0,2.8,0l7.35-4.3C176.416,282.1,176.6,281.967,176.6,281.7Zm-7.9,11.1-7.3,4.3-.4.4.4.35v-.15l7.3,4.3a2.873,2.873,0,0,0,2.85,0l7.5-4.3a2.757,2.757,0,0,1,.75-.2c-.135,0-.319-.136-.55-.4h-.2l-7.35-4.3A3.176,3.176,0,0,0,168.7,292.8Zm-1.3-2.65-.4-.35-7.7-4.15a2.43,2.43,0,0,0-2.6,0l-7.551,4.3q-.148.4-.349.4.2.2.349.35l7.551,4.35a2.43,2.43,0,0,0,2.6,0l7.55-4.35C167.217,290.6,167.4,290.417,167.4,290.15Zm3.2-1.1,7.5,4.3a2.375,2.375,0,0,0,2.85,0l7.5-4.3a.745.745,0,0,0,.55-.2c-.134,0-.316-.133-.55-.4l-7.5-4.3a2.893,2.893,0,0,0-2.85,0l-7.5,4.3c-.133.267-.267.4-.4.4A.578.578,0,0,0,170.6,289.05ZM155,307.8q.2,0,.55.4V308l7.55,4.35a2.43,2.43,0,0,0,2.6,0l7.5-4.35v.2l.6-.4q0-.15-.6-.55l-7.5-4.3a2.707,2.707,0,0,0-2.6.15l-7.55,4.35A.972.972,0,0,1,155,307.8Zm-9.95,9.4a1.374,1.374,0,0,0,.55.6l7.5,4.3v.2a2.528,2.528,0,0,0,2.65,0v-.2l2.649-1.5c.368-.133.551-.317.551-.55l-7.9-4.5a2.649,2.649,0,0,0-2.8,0l-2.65,1.5A1.518,1.518,0,0,1,145.05,317.2Zm35.9-17.45-7.35,4.3q-.4.4-.55.4a1.6,1.6,0,0,1,.55.2l7.5,4.5a2.528,2.528,0,0,0,2.65,0l7.5-4.5h.2l.4-.2-7.9-4.7A3.188,3.188,0,0,0,180.95,299.75Zm-13,15.4,23.1,13.35v.2a2.514,2.514,0,0,0,2.65,0v-.2l7.7-4.35v.2q.4-.2.4-.35c0-.134-.134-.333-.4-.6l-23.3-13.15h.2a2.8,2.8,0,0,0-2.8,0l-7.55,4.35a.619.619,0,0,1-.35.15A3.587,3.587,0,0,0,167.95,315.15ZM165.9,319.3l-1.7.9,9.6,5.65,2.25-1.7h.2a.616.616,0,0,0,.35-.15c-.133,0-.317-.134-.55-.4l-7.35-4.3A2.8,2.8,0,0,0,165.9,319.3Zm16.9-23.15,7.5,4.35v.2a2.592,2.592,0,0,0,2.849-.2l7.3-4.35a1.4,1.4,0,0,0,.75-.35,1.585,1.585,0,0,1-.551-.2h-.2l-7.3-4.5h.2a4.155,4.155,0,0,0-3.2.2l-7.7,4.5C182.45,295.934,182.566,296.05,182.8,296.15Zm23.1-14.8c-.233.1-.349.216-.349.35s.116.267.349.4l7.551,4.3a3.188,3.188,0,0,0,3,0h-.2l3-1.7c.267-.134.4-.25.4-.35l-.4-.4-7.7-4.3a2.125,2.125,0,0,0-2.25-.2.58.58,0,0,1-.4.2ZM207.05,277l-.55-.2-7.55-4.3a2.42,2.42,0,0,0-2.051-.2.646.646,0,0,0-.549.2l-2.85,1.7a2.821,2.821,0,0,1-.75.2,1.921,1.921,0,0,1,.6.15l7.5,4.35v.15a3,3,0,0,0,3,0h-.2l2.851-1.65C206.866,277.267,207.05,277.134,207.05,277Zm1.1,10.7-7.5,4.35q-.35.35-.549.35a1.674,1.674,0,0,1,.35.6v-.2l7.7,4.3a2.9,2.9,0,0,0,2.851,0h-.2l7.7-4.3v.2c.267-.267.4-.467.4-.6l-8.1-4.7A2.53,2.53,0,0,0,208.149,287.7Zm-1.849-2.6h-.2l-7.3-4.35a2.89,2.89,0,0,0-2.85,0l-7.5,4.35q-.4.35-.551.35a.655.655,0,0,0,.551.2l7.5,4.3a2.89,2.89,0,0,0,2.85,0l7.3-4.3a.648.648,0,0,0,.549-.2Q206.5,285.45,206.3,285.1Zm15.05,1.7-2.85,1.65c-.233.267-.417.4-.55.4a.745.745,0,0,0,.55.2l7.35,4.3a2.546,2.546,0,0,0,2.8.2v-.2l2.8-1.7q.6,0,.6-.15l-8.1-4.7a1.867,1.867,0,0,0-2.25,0Zm-1.15,8.05-7.15,4.35a1.523,1.523,0,0,1-.55.15,2.62,2.62,0,0,0,.55.4l13.55,7.7v.2a3.176,3.176,0,0,0,3,0h-.2l7.351-4.35c.366-.133.55-.25.55-.35l-.55-.2-13.55-7.9A3.176,3.176,0,0,0,220.2,294.85Zm-25,7.9a2.783,2.783,0,0,1-.75.2,1.545,1.545,0,0,1,.55.15l7.55,4.35v.2a3.176,3.176,0,0,0,3,0h-.2l7.35-4.35c.366-.133.55-.25.55-.35,0-.134-.184-.266-.55-.4l-7.35-4.3h.2a2.832,2.832,0,0,0-3,.2Zm-9.2,9,17.1,9.8a2.309,2.309,0,0,0,2.65.2v-.2l7.5-4.15a1.231,1.231,0,0,1,.55-.2,4.067,4.067,0,0,1-.55-.55l-17.1-9.75a2.8,2.8,0,0,0-2.8,0L186,311.2a1.582,1.582,0,0,1-.55.2A1.2,1.2,0,0,0,186,311.75Zm28.75,3a2.649,2.649,0,0,0,2.8,0l7.349-4.5h.2q.349-.15.35-.35l-.35-.4-7.55-4.3a2.8,2.8,0,0,0-2.8,0l-7.5,4.3q-.2.4-.4.4a3.7,3.7,0,0,0,.4.35ZM234.3,294.1h-.2l-2.8,1.7a1.155,1.155,0,0,1-.6.35,2.315,2.315,0,0,0,.6.4l7.3,4.3a2.628,2.628,0,0,0,2.85.2l2.4-1.5.4-.2.2-.15a2.611,2.611,0,0,0,.55-.4,1.872,1.872,0,0,1-.75-.35L236.9,294.1h.2A3.694,3.694,0,0,0,234.3,294.1Zm-63.9,37.75,7.351,4.55a2.441,2.441,0,0,0,2.6,0v-.2l2.65-1.5h.2c.234-.134.35-.266.35-.4l-7.9-4.5a2.8,2.8,0,0,0-2.8,0l-2.65,1.5c-.233.266-.417.4-.551.4A1.331,1.331,0,0,0,170.4,331.85Zm-4.5-3.15a2.547,2.547,0,0,0,2.8-.2l2.25-1.15-9.4-5.45-3.151,1.7c-.266.266-.465.4-.6.4a1.331,1.331,0,0,0,.75.15l7.349,4.35Z" fill="#999" fill-rule="evenodd"/>
  </g>
  <g id="html__button">
    <path id="Trazado_46" data-name="Trazado 46" d="M171.35,135.95a14.868,14.868,0,0,0-.951,2,6.2,6.2,0,0,0-.3,1.6q-.035,1.878-.15,3.7c-.352.016-.72.049-1.1.1q-.671.994-1.326,2L158.2,140v-.05l-4.45-2.55a.677.677,0,0,0-.1-.05,3.9,3.9,0,0,1-1.774-2.325q.219-.645.425-1.275.35-.851.5-1.15a4.844,4.844,0,0,0-1.05-3.275V127.9a2.563,2.563,0,0,1,.4-.2c.21-.074.411-.149.6-.225v2.375l.9.5v-3.275c.175-.082.341-.166.5-.25l1.451.825v3.8l.85.5V123.5l-.85-.5v1.425a.724.724,0,0,0-1-.375q-.1-.15-.6-.85a1.47,1.47,0,0,1,.75-2.05l-.2.05,1.25-1.55a2.072,2.072,0,0,0-1.95-.85l-2.1.65V116.1q0-1.2.5-1.5.5-.25,1.5.3l7.55,4.35v.05l8,4.6a3.69,3.69,0,0,1,2.025,3.125,2.8,2.8,0,0,1,.025.375Zm-4.3-6.35v8.45L170,139.8v-1.65l-2.1-1.2V130.1Zm-1.5-.85-1.85,3.1-1.9-5.25-.4-.25v8.45l.851.5v-5.35l1.45,4,1.449-2.3v5.3l.8.5V129Zm-4.8-2.8-3.65-2.1v1.65l1.4.8v6.8l.85.55V126.8l1.4.8Zm-5.375-.075a1.751,1.751,0,0,0,.225-.35V126Z" fill="#0cf" fill-rule="evenodd"/>
  </g>
  <g id="Capa_50" data-name="Capa 50">
    <path id="Trazado_47" data-name="Trazado 47" d="M300.2,297.125q-.239,1.7-.6,3.375a1.416,1.416,0,0,1-1,.25q-4.851,1.05-7.85-3.45-.7-.949-1.3-1.95A12.427,12.427,0,0,1,288,291.9c-.038-.112-.071-.229-.1-.35l.7-2.7V286.9q-.1-1.6-.3-3.1a1.484,1.484,0,0,0-.05-.35.562.562,0,0,0-.05-.25c0-.173-.009-.34-.025-.5a4.68,4.68,0,0,0-.125-.85.159.159,0,0,0-.1-.15v-.55a7.031,7.031,0,0,0-.15-.8,4.114,4.114,0,0,1,.15.6q.1-2.7.35-6.3.549-5.8.75-8.6.2-2.95.349-4.25.3-2.449.7-4.4a25.3,25.3,0,0,1,2.3-5.85,4.134,4.134,0,0,1,.451-.85,15.134,15.134,0,0,0,1.549-.65q.2,3.951.451,7.85a13.8,13.8,0,0,0,.65,3.95,160.3,160.3,0,0,1,4.55,19.6q.072.456.125.9A51.375,51.375,0,0,1,300.2,297.125ZM286.7,315l-4.4.25q-.7-.2-1.55-.45-7.4-1.3-7.351-7.55l.951-.55a27.489,27.489,0,0,0,.5-4,8.183,8.183,0,0,0-.1-1.8q-.111-1.14-.25-2.275a146.611,146.611,0,0,0-2.675-15.925q-.23-1.026-.475-2.05-.3-1.2-.6-2.4-1.844-7.551-3.575-15.125-.316-1.361-.625-2.725a51.2,51.2,0,0,1-.651-7.025,57.5,57.5,0,0,1,.651-9.575c.265.1.532.206.8.3a15.641,15.641,0,0,0,7.4.6,18.819,18.819,0,0,0,2.8-.7,31.774,31.774,0,0,0,9.6-5.45,62.025,62.025,0,0,0,5.75-5.2q.75,5.1,1.151,10.35-.3.651-.7,1.35a40.753,40.753,0,0,1-5.75,5.35c-.155.117-.3.233-.451.35a8.362,8.362,0,0,0-3.4,5.3q0,.15-.5,2.55a17.615,17.615,0,0,0-.3,2.85q0,.049.15,2.6-.051,3.2-.15,6.5-.021,1.82.074,3.625a56.525,56.525,0,0,0,1.1,8.525q.547,2.734,1.375,5.45.1.5.25,1l.7,6.15.15,1.3q.849,7.251,1.35,15.3a4.415,4.415,0,0,1-.8,2.6A3.367,3.367,0,0,1,286.7,315Z" fill="#654466" fill-rule="evenodd"/>
  </g>
  <g id="Capa_49" data-name="Capa 49">
    <path id="Trazado_48" data-name="Trazado 48" d="M294.4,250.05a15.134,15.134,0,0,1-1.549.65,4.134,4.134,0,0,0-.451.85,25.3,25.3,0,0,0-2.3,5.85q-.4,1.95-.7,4.4-.148,1.3-.349,4.25-.2,2.8-.75,8.6-.25,3.6-.35,6.3a4.114,4.114,0,0,0-.15-.6q-.351-2.051-.8-4.05-.3-1.15-.65-2.25a1.749,1.749,0,0,1-.15-.45q-.168-.548-.325-1.1-1.422-4.638-2.675-9.2a3.139,3.139,0,0,1-.1.75q-.15-2.55-.15-2.6a17.615,17.615,0,0,1,.3-2.85q.5-2.4.5-2.55a8.362,8.362,0,0,1,3.4-5.3c.146-.117.3-.233.451-.35a40.753,40.753,0,0,0,5.75-5.35q.4-.7.7-1.35.05.949.1,1.85Q294.35,247.75,294.4,250.05Z" fill="#3b1e3c" fill-rule="evenodd"/>
  </g>
  <g id="Capa_36" data-name="Capa 36">
    <path id="Trazado_49" data-name="Trazado 49" d="M213.1,132.45c.066-.067.1-.117.1-.15a6.647,6.647,0,0,0,.7-1.3,2.617,2.617,0,0,0,.2-.7q.1-.75.4-2.5.3-1.55.4-2.45c.011-.052.019-.1.026-.15a31.073,31.073,0,0,0,.275-7.15q-.15-2.45-.2-3.7a36.166,36.166,0,0,1-.1-3.65v-.025q-.148-1.1-.149-5.175a27.48,27.48,0,0,0-.4-5.2,17.022,17.022,0,0,1-.5-3.9,12.9,12.9,0,0,1,.1-1.4,8.244,8.244,0,0,1,2.15-4.85q.75-.6,1.4-1.2a3.925,3.925,0,0,0,.9.65,5.182,5.182,0,0,1,2.3,4.75,6.5,6.5,0,0,1-.3,1.4,6.578,6.578,0,0,0-.3,1.4q0,.1.375,3.075.172,1.385.424,3.375a11.37,11.37,0,0,0,2.351,5.1q.1-.3.2-.6-.2.7-.45,1.45-.2,1.4-.65,3.25-.168.7-.5,1.9-.152.588-.35,1.3a26.8,26.8,0,0,0-.851,4.2,4.636,4.636,0,0,0-.649,1.35q0,.049-.15,2.2a7.865,7.865,0,0,1-.3,2.1,13.308,13.308,0,0,1-.625,1.65q-.486,1.11-1.276,2.55-.729,1.323-2.25,3.85c-.1.164-.2.33-.3.5A7.8,7.8,0,0,1,213.1,132.45Zm16.549-39.6a4.8,4.8,0,0,0,1.151.55,2.392,2.392,0,0,0,2.05.15l3.8-2.2a2.57,2.57,0,0,0-.25.75,1.69,1.69,0,0,0,1.2-.25,4.244,4.244,0,0,0,.775-.825l.125-.175q.45-.7.649-.95l1.051-.65a1.565,1.565,0,0,1-.3.4l-.149.25a9.709,9.709,0,0,1-.75.65.326.326,0,0,1-.15.15c-.121.139-.229.272-.326.4a4.312,4.312,0,0,0-.574,1,.548.548,0,0,0-.051.25v.4a4.818,4.818,0,0,0,1.726-1.025q.294-.256.625-.575a5.3,5.3,0,0,1,2.4-1.6,4.376,4.376,0,0,1-.75.95q-.1.1-.9.75a4.827,4.827,0,0,0-.775.825,2.509,2.509,0,0,0-.475,1.075,2.81,2.81,0,0,0,1.4-.525q.173-.126.351-.275,1-.851,1.55-1.25A22.294,22.294,0,0,1,245,89.55q.9-.7,1.5-1.2a2.562,2.562,0,0,1,.5-.05c.1.267.184.517.25.75a3.81,3.81,0,0,1,.125.475,4.645,4.645,0,0,1,.075.725v.1a2.164,2.164,0,0,1,.05.8q.05.049,0,.15v.45a6.675,6.675,0,0,1-1.3,3.55l-.2.15a11.681,11.681,0,0,1-1.45.8q-.549.3-1.7.9a23.917,23.917,0,0,0-3.5,1.6l-.2.1a.58.58,0,0,0-.149.1q-.89.444-1.525.8h-.025v-.025A12.155,12.155,0,0,0,237,97.05a4.107,4.107,0,0,0-2-.7q-3.151-.6-3.5-.7-.6-.15-1.1-.3-.5-.2-.949-.35a8.3,8.3,0,0,1-1.45-.85Q228.651,93.6,229.649,92.85Zm18.451-45a.145.145,0,0,0-.05-.1,3.591,3.591,0,0,1-.151-.9,6.21,6.21,0,0,1,.7-2.8,3.984,3.984,0,0,1,3.9-2.5,6.75,6.75,0,0,1,2.75.55h.1a3.271,3.271,0,0,1-.35,2.95,4.854,4.854,0,0,1-1.25,1.35,5.1,5.1,0,0,1-1.7.85A17.475,17.475,0,0,1,248.1,47.85ZM235,36.4l1.7,1.6a11.9,11.9,0,0,0,3.75,1.15l.05.1a4.045,4.045,0,0,0,1.85,1.3,16.918,16.918,0,0,0,2.15.4,2.986,2.986,0,0,1-.95.15,13.919,13.919,0,0,1-7.95-2.25q-.6-.4-1.05-.75a12.121,12.121,0,0,1,0-2.7v-.35A3.585,3.585,0,0,0,235,36.4Zm2.45,8.7a7.889,7.889,0,0,1-1.35,4.8,1.348,1.348,0,0,1-.25.35l-.451.6a5.114,5.114,0,0,1-.549.65c-.034.033-.083.083-.15.15l-.15.15c0,.033-.033.083-.1.15a5.933,5.933,0,0,1,.25-.7.448.448,0,0,1,.05-.2,32.127,32.127,0,0,0,.9-4.35q.1-.8.551-5.35a1.178,1.178,0,0,1,.5.95,6.31,6.31,0,0,1,0,1.15,3.5,3.5,0,0,0,.1,1A.816.816,0,0,0,237.45,45.1Zm.1,16.95a18.744,18.744,0,0,1-2,3.4q-.549.8-2.4,3.15l-.2.3c-.034.033-.067.067-.1.1a27.139,27.139,0,0,0,.7-3.65A18.747,18.747,0,0,0,232.4,59.7c-.132-.367-.266-.717-.4-1.05a2.5,2.5,0,0,1,.25-.4l.7-1.3.6,1.05a9.635,9.635,0,0,0,1,1.15,6.869,6.869,0,0,1,.55.5q.849.75,1.3,1.15A9.561,9.561,0,0,1,237.55,62.05ZM256.6,70.9a8.252,8.252,0,0,0-.35-2.45,16.2,16.2,0,0,1-.5-2.4q-.651-4.8-1.25-7.8a4.418,4.418,0,0,1-2.55-.75,2,2,0,0,1-.85-2.25V55.1a2.88,2.88,0,0,0,.15-.5l.1-.15a3.715,3.715,0,0,1,.25-.65,7.962,7.962,0,0,1,2.15,1.6q4.9,4.849,4.9,13.05,0,.1-.849,2.5a4.223,4.223,0,0,1-3,2.35.563.563,0,0,1,.2-.2.145.145,0,0,1,.05-.1l.15-.15A5.627,5.627,0,0,0,256.6,70.9ZM68.1,86.9l-2.55-2.8V84q-.1-1.85-.3-3.55-.1-1.849-.2-3.65v-.4l1.15.7v1.5a12.349,12.349,0,0,0,2.4,6.9.089.089,0,0,1,.1.1Q68.4,86.2,68.1,86.9ZM66.6,89q-.5-.95-1.05-1.9h.15q.3.551,2.2.1a8.086,8.086,0,0,1-1,1.45Zm160.65,38.6a7.787,7.787,0,0,1,.4,2.1,5.062,5.062,0,0,1-.449,2.1c-.054.113-.112.238-.176.375q-.528,1.164-1.424,3.425-1,2.55-1.6,3.85a3.527,3.527,0,0,1-1.351,1.75,2.4,2.4,0,0,1-2.1.4,7.728,7.728,0,0,1-1.95-1.05,1.308,1.308,0,0,1-.451-1.85,3.123,3.123,0,0,0,.4-.6h.05q1.65,1.45,2.049,1.45,2.451,0,3.75-3.2,1-3.6,1.25-4.3.09-.291.176-.575A33.224,33.224,0,0,1,227.25,127.6Z" fill="#ed9870" fill-rule="evenodd"/>
  </g>
  <g id="Capa_28" data-name="Capa 28">
    <path id="Trazado_50" data-name="Trazado 50" d="M107.75,19.85l-3.7,2.05-3.85-2.2,3.6-2.15Zm26.7,15.75-3.5,2.05-.1-.05-3.8-2.35,3.55-2Z" fill="#9188bc" fill-rule="evenodd"/>
  </g>
  <g id="Capa_27" data-name="Capa 27">
    <path id="Trazado_51" data-name="Trazado 51" d="M130.524,48.3l-.9,2.925-1.375,4.35L126.9,59.85l-.449,1.45-.051.1L123.05,72.125,120.7,79.6h-.1l-.8,2.8-.1.1-4.25,13.575L114,100.7l-4.425,14.15-.825,2.6h-.05l-.051.1c.035-.033.068-.067.1-.1L104.525,131,96.8,155.825l-2.55,8.2-3.125,10.05L88.25,183.25a.044.044,0,0,1-.05.05l-5.675,18.025-1.8,5.75-.675,2.175-.8,2.55-2.45,7.825-1.175,3.725-1.6,5.025-1.25,3.95-.05.2L71.55,236.25l-.65,2.1-3.1.3.1-.325,1.225-3.875.275-.9,1-3.2,2.65-8.475.7-2.2,2.925-9.35V210.3l.025-.075,1.8-5.75.425-1.325,1.025-3.3L84.7,184.7l4.075-12.975,2.9-9.2L95.8,149.4l7.15-22.75,4.15-13.2,4-12.75,4.35-13.975L116.8,82.4l.849-2.8h.1l2.8-8.925L123.5,61.3l.875-2.9.125-.4L128,46.85l1.149-3.7H129.1l1.45-4.625.25-.825.15-.05,3.5-2.05-1.375,4.375L132.05,43.15h.1ZM102.375,65.575c.017-.189.025-.4.025-.625V63.925l13.05,7.55.2.125v.05h.051L115.25,73ZM94.55,86l.55-1.325.7.4L108.95,92.7v.05H109l-.4,1.35Zm-15.2,20.875.85.475-.05.05.1.1v.05l-5,15.55,5.85,3.4-2.175.375L72.2,123l2.9-9.45h.05l1.35-4.25a10.594,10.594,0,0,0,2.25-1.85C78.954,107.271,79.154,107.08,79.35,106.875Zm2.675-3.15L83,102.6l4.05,2.35,8.75,5.075,6.5,3.775v.05l-.45,1.3Zm11.05,31.3q.134-.726.2-1.475L95.6,134.9v.05l-.4,1.3Zm-8.5,18.5,1.875,1.1L89,156.1l-.45,1.35-4.6-2.65.5-.95ZM80.2,176l2.15,1.25-.05.05h.05l-.4,1.4-3.15-1.825a2.534,2.534,0,0,0,1.35-.775Zm-16.275-9.45-.075.05-.6.7c.1.268.21.527.325.775L60.85,166.5l.9-3.95,1.425-10.75,1.125-3.6,2.6,1.5-4.95,15.7ZM70.1,195.2l5.65,3.25-.05.05h.05l-.45,1.4-11.1-6.4,1.05-.35.25-.625ZM45.15,219.625l-1.2,3.825-3.15.2,1.7-5.575.725-2.425.525-1.7.65-2.15,2.7,1.55-1.2,3.825Zm4.025-12.975-.275.9,20.3,11.8-.5,1.7-23.1-13.3,5.45-17.15.65.375.2,1.575-.1,3.25v2.475ZM107.75,19.85l-1.5,4.775-2.1,6.725h.1l-2.35,7.3,13.55,7.9,6.8,3.95h.05l-.4,1.35h-.049L98.9,38.6l2.25-7.25h-.05l2.95-9.45ZM85.025,85.325q-.793,1.1-1.6,2.2L84.3,84.9ZM101.95,138.65l.1-.1H102ZM72.625,127.975l-1.075.175-.075-.825ZM68.7,138.8l.3-.15.95-1-.85,1Zm4.45,9.775-4.25-2.45,1.775-.675,3.025,1.775ZM95.4,159.75l-.05.1.1-.1Zm-6.65,21.2-.05.1.1-.1Zm-6.65,21.3.1-.1h-.05Z" fill="#373059" fill-rule="evenodd"/>
  </g>
  <g id="Capa_26" data-name="Capa 26">
    <path id="Trazado_52" data-name="Trazado 52" d="M108.75,117.45c-.033.033-.066.067-.1.1l.051-.1Zm-6.8,21.2.05-.1h.05Zm-6.55,21.1h.05l-.1.1Zm-6.65,21.2h.05l-.1.1Zm-6.65,21.3.05-.1h.05Z" fill="#8c6e54" fill-rule="evenodd"/>
  </g>
  <g id="Capa_25" data-name="Capa 25">
    <path id="Trazado_53" data-name="Trazado 53" d="M80.75,175l-.55,1-.05.1a2.534,2.534,0,0,1-1.35.775,2.326,2.326,0,0,1-.6.075,2.372,2.372,0,0,1-2.2-.6q-2.85-2-5.65-4.1l-1.05.7h-.2a9.772,9.772,0,0,1-5.525-4.875c-.115-.248-.223-.507-.325-.775l.6-.7.075-.05,1.325-1.1a13.027,13.027,0,0,0,2.1,3.075,14.344,14.344,0,0,0,4.8,3.425,8.644,8.644,0,0,1,2.85,2.4,6.092,6.092,0,0,0,.775.775l1.2.7a3.485,3.485,0,0,0,2.625-.175A6.04,6.04,0,0,0,80.75,175ZM59.9,195.65c-.033.081-.066.165-.1.25a2.974,2.974,0,0,1-.8,1.4q-3.25,3.35-7.2,1.05V195.8c.209.1.417.188.625.275a6.4,6.4,0,0,0,6.6-.925,10.56,10.56,0,0,0,1.175-1.1,5.264,5.264,0,0,1,2.15-1.3c.154-.016.3-.032.45-.05a8.781,8.781,0,0,0,2.05-.55,7.723,7.723,0,0,0,.95-.5v.1l-.3.775-.25.625-1.05.35-4.1,1.4A6.513,6.513,0,0,1,59.9,195.65Z" fill="#3b3635" fill-rule="evenodd"/>
  </g>
  <g id="Capa_24" data-name="Capa 24">
    <path id="Trazado_54" data-name="Trazado 54" d="M176.2,139.675a4.146,4.146,0,0,1-.2.875,3.934,3.934,0,0,1-.5,1,12.446,12.446,0,0,0-1.2,1.6q-.322.612-.675,1.275a5.074,5.074,0,0,0-3.675-1.175q.115-1.822.15-3.7a6.2,6.2,0,0,1,.3-1.6,14.868,14.868,0,0,1,.951-2,1.037,1.037,0,0,1,.049-.1,6.3,6.3,0,0,1,.9-1.4l.2-1.8a6.39,6.39,0,0,1,1.05.2q.45.2,1,.4a22.494,22.494,0,0,1,1.4,3.9c.017.052.034.1.05.15a6.373,6.373,0,0,1,.25,1.45A5.28,5.28,0,0,1,176.2,139.675ZM255.2,183a3.836,3.836,0,0,0-1.551-.5,4.429,4.429,0,0,0-1.8.15,3.509,3.509,0,0,0-.6.225q-.063-.335-.125-.65-.117-.657-.226-1.275a14.526,14.526,0,0,0-.649-2.05,4.527,4.527,0,0,1,.1-3.1,9.092,9.092,0,0,1,.85-1.6c.069-.111.145-.219.225-.325a17.627,17.627,0,0,1,2.525-3.075c.061-.011.119-.019.175-.025a4.331,4.331,0,0,1,.975-.025,3.306,3.306,0,0,1,1.15.1l-.4,1.85a12.288,12.288,0,0,1,.45,1.75,14.1,14.1,0,0,1,.3,2.45v.225a8.4,8.4,0,0,1-.2,1.575Q255.717,180.863,255.2,183ZM152.75,127.475c-.19.076-.391.151-.6.225a2.563,2.563,0,0,0-.4.2,5.531,5.531,0,0,0-.9.775,6.054,6.054,0,0,0-4.076-.2.793.793,0,0,1,.026-.125c.016-.046.033-.088.05-.125a12.069,12.069,0,0,0,.8-4.025,2.534,2.534,0,0,1,.125-.7,6.117,6.117,0,0,1,1.375-2.175c.081-.086.164-.17.25-.25a18.543,18.543,0,0,1,1.5-1.375l.851-.25,2.1-.65a2.072,2.072,0,0,1,1.95.85l-1.25,1.55.2-.05a1.47,1.47,0,0,0-.75,2.05q.5.7.6.85a.724.724,0,0,1,1,.375.906.906,0,0,1,.049.125,1.235,1.235,0,0,1-.049.975,1.751,1.751,0,0,1-.225.35,4.127,4.127,0,0,1-1.226.95c-.159.084-.325.168-.5.25Q153.241,127.279,152.75,127.475Zm-51.2-57.6q-.6,3.288-1.95,4.175a11.228,11.228,0,0,0-1.95,1.6L96.1,74.9a2.988,2.988,0,0,1-.3-.075,5.676,5.676,0,0,1-.65-.175.455.455,0,0,1-.3,0,8.06,8.06,0,0,0-1.3,0,5.679,5.679,0,0,0,.4-2.65,9.4,9.4,0,0,1-.25-3.425,1.538,1.538,0,0,1,1.15-1.425q.8-.15,1,.75a6.724,6.724,0,0,1,1.1-.05c.069-.016.135-.032.2-.05a1.523,1.523,0,0,0,1.25-1.7l.05.15.65-1.9a2.059,2.059,0,0,1,1.8,1.25l.35,1.275.5,1.725Q101.665,69.281,101.55,69.875Zm34.8,87.375q.049-.45.1-.85a4.972,4.972,0,0,1,1.25-2.75l-.25,1.7.449-.4a3.672,3.672,0,0,1-.849,2.3l-.3.4ZM276.2,199l-.45.4a3.808,3.808,0,0,1-.351-.4,4.056,4.056,0,0,1-.949-2.4l.5.4-.25-1.85a5.748,5.748,0,0,1,1.35,3A6.337,6.337,0,0,0,276.2,199Z" fill="#e8b588" fill-rule="evenodd"/>
  </g>
  <g id="blue__buttons">
    <path id="Trazado_55" data-name="Trazado 55" d="M163.6,115.25l-5.2-3q-1-.6-1.5-.3h-.049l-2.25,1.35h-.05l-.625.35-.276-.15v-6.55l9.951,5.85Zm-9.625,57.525q.358-.229.725-.475l2.6-1.7q1.3-.851,2-1.3l1.849,1.1v6.55ZM176,179l8.6,4.95v6.45l-8.6-4.9Zm46.25-3.15v6.65l-14-8.1v-6.65Z" fill="#6cceff" fill-rule="evenodd"/>
  </g>
  <g id="red__buttons">
    <path id="Trazado_56" data-name="Trazado 56" d="M167.524,145.35q-.974,1.446-1.924,2.9c-.279.421-.553.838-.826,1.25l-11.125-6.45v-5.7a.677.677,0,0,1,.1.05l4.45,2.55V140Zm2.826-39.4v6.5l-16.7-9.65V96.25ZM184.6,180.7l-6.25-3.75V170.4l6.25,3.65Z" fill="#fe0178" fill-rule="evenodd"/>
  </g>
  <g id="Capa_21" data-name="Capa 21">
    <path id="Trazado_57" data-name="Trazado 57" d="M176,142.675V140.55a4.146,4.146,0,0,0,.2-.875l4.35,2.475v6.55L176,146.15ZM162.225,167.7q.309-.176.625-.35a8.914,8.914,0,0,0,2.4-2.4q.543-.694,1.075-1.45l3.475,2v6.6Zm51.65-25.95.649.4a3.386,3.386,0,0,0-.724,2.35,1.363,1.363,0,0,0,.7,1.45,3.076,3.076,0,0,0,.9.45v2.75l-14-8.2v-6.5l7.576,4.425a6.518,6.518,0,0,0,.075,2.175,2.218,2.218,0,0,0,1.7,1.2,4.379,4.379,0,0,0,2.149-.15C213.251,141.983,213.575,141.866,213.875,141.75Zm-55.3,17.3q-1.507.77-2.975,1.55a20.392,20.392,0,0,1-1.951.975V156.2Zm22.875-26.2,3.15,1.9v6.5l-3.15-1.8Zm8.1,50.65v-6.55l7.05,3.95v6.6Z" fill="#0099e6" fill-rule="evenodd"/>
  </g>
  <g id="Capa_20" data-name="Capa 20">
    <path id="Trazado_58" data-name="Trazado 58" d="M176,137.3c-.016-.048-.033-.1-.05-.15a22.494,22.494,0,0,0-1.4-3.9q-.549-.2-1-.4a6.39,6.39,0,0,0-1.05-.2l-.2,1.8a6.3,6.3,0,0,0-.9,1.4,1.037,1.037,0,0,0-.049.1V127.4a2.8,2.8,0,0,0-.025-.375A3.69,3.69,0,0,0,169.3,123.9l-8-4.6v-.05l-7.55-4.35q-1-.551-1.5-.3l1.675-.95.625-.35h.05l2.25-1.35h.049q.5-.3,1.5.3l5.2,3,10.4,6a3.721,3.721,0,0,1,2,3.3V137.3Zm0,3.25v2.125q-.034,1.233-.7,1.375l-1.325.8c-.044-.069-.086-.135-.125-.2q-.105-.111-.225-.225.351-.663.675-1.275a12.446,12.446,0,0,1,1.2-1.6A3.934,3.934,0,0,0,176,140.55Z" fill-rule="evenodd" fill="url(#linear-gradient-2)"/>
  </g>
  <g id="Capa_19" data-name="Capa 19">
    <path id="Trazado_59" data-name="Trazado 59" d="M136.7,158.025l-.551,3.575.4,1.45a6.4,6.4,0,0,1-1.55.2,6.645,6.645,0,0,0-1.875-2.4,13.309,13.309,0,0,0-2.525-1.6,1.963,1.963,0,0,0-.451-.25,6.809,6.809,0,0,0,6.2-1.75l.4.4Zm-9.75.475.449-.55.151-.2a3.794,3.794,0,0,0,.8.55,4.917,4.917,0,0,0,.65.275,3.605,3.605,0,0,0-1.7-.125A1.491,1.491,0,0,1,126.95,158.5ZM276.3,203.7l-.55-4.3.45-.4a9.19,9.19,0,0,0,1.35,1,6.9,6.9,0,0,0,5.3.9,2.766,2.766,0,0,0-.55.25q-3.6,1.85-4.7,4.25h-.05a14.527,14.527,0,0,1-1.651-.1Zm9.45-3.9.2.3.3.25a2.174,2.174,0,0,1-.4-.05,3.583,3.583,0,0,0-1.85.2q.35-.15.75-.35a3.372,3.372,0,0,0,.85-.55Z" fill="#b58866" fill-rule="evenodd"/>
  </g>
  <g id="Capa_18" data-name="Capa 18">
    <path id="Trazado_60" data-name="Trazado 60" d="M129,158.575l.05.025c.033,0,.083.033.15.1l.15.025a5.084,5.084,0,0,1,.549.175l.1.05a.2.2,0,0,1,.149.05,1.963,1.963,0,0,1,.451.25,13.309,13.309,0,0,1,2.525,1.6,6.645,6.645,0,0,1,1.875,2.4,10.584,10.584,0,0,1-4.425-.75,9.272,9.272,0,0,1-3.926-3.25v-.05a1.007,1.007,0,0,1-.1-.25l.4-.45a1.491,1.491,0,0,0,.35-.05A3.605,3.605,0,0,1,129,158.575ZM286.25,200.35l.45.5a.159.159,0,0,0-.1.15.2.2,0,0,0-.05.15,9.718,9.718,0,0,1-8.95,4.25q1.1-2.4,4.7-4.25a2.766,2.766,0,0,1,.55-.25.144.144,0,0,1,.1-.05l.1-.05q.4-.15.75-.25a.448.448,0,0,1,.2-.05,3.583,3.583,0,0,1,1.85-.2A2.174,2.174,0,0,0,286.25,200.35Z" fill="#dda274" fill-rule="evenodd"/>
  </g>
  <g id="Capa_17" data-name="Capa 17">
    <path id="Trazado_61" data-name="Trazado 61" d="M256.524,184.15l-.1-.125a2.661,2.661,0,0,0,.175-1.075V164.5a3.967,3.967,0,0,0-2-3.55.666.666,0,0,1-.1-.05l-9.75-5.65v.05l-6.351-3.65q-1-.6-1.5-.35l2.351-1.35h.05l2.349-1.4h.051q.5-.251,1.55.3l11.35,6.55,4.75,2.75a3.908,3.908,0,0,1,2.049,3.6V180.2q0,1.4-.7,1.55L258.625,183a.467.467,0,0,1-.325.1Z" fill="#d735a1" fill-rule="evenodd"/>
  </g>
  <g id="Capa_16" data-name="Capa 16">
    <path id="Trazado_62" data-name="Trazado 62" d="M256.6,177.125v5.825a2.661,2.661,0,0,1-.175,1.075L256.4,184a1.7,1.7,0,0,0-.349-.35,3.911,3.911,0,0,0-.85-.65q.516-2.136,1.2-4.3A8.4,8.4,0,0,0,256.6,177.125Zm-5.175-3.25c-.08.106-.156.214-.225.325a9.092,9.092,0,0,0-.85,1.6,4.527,4.527,0,0,0-.1,3.1,14.526,14.526,0,0,1,.649,2.05q.109.618.226,1.275L243,177.55v-.05l-4.6-2.65a3.91,3.91,0,0,1-2.049-3.6v-18.4q0-1.25.549-1.55.5-.251,1.5.35l6.351,3.65v-.05l9.75,5.65a.666.666,0,0,0,.1.05,3.967,3.967,0,0,1,2,3.55v12.4a14.1,14.1,0,0,0-.3-2.45,12.288,12.288,0,0,0-.45-1.75l.4-1.85a3.306,3.306,0,0,0-1.15-.1,4.331,4.331,0,0,0-.975.025l-5.175-7.125v2.3l4.15,5.4v.1l-4.15.6v2.35ZM243.4,162.8v-2.3l-5.349,1.15v2.25l5.349,7.35V168.9l-4.149-5.4v-.05Zm3.951-2.65L244,173.65l.9.5,3.4-13.45Z" fill="#ff78d2" fill-rule="evenodd"/>
  </g>
  <g id="Capa_15" data-name="Capa 15">
    <g id="Layer_359" data-name="Layer 359">
      <g id="Capa_301" data-name="Capa 301">
        <g id="Capa_302" data-name="Capa 302">
          <g id="Capa_311" data-name="Capa 311">
            <path id="Trazado_63" data-name="Trazado 63" d="M281.1,318l-2.451,1.4q-4.249,2.449-10.049-.8l-8.65-5q-5.7-3.249-1.45-5.75l16-9.225q.138,1.134.25,2.275a8.183,8.183,0,0,1,.1,1.8,27.489,27.489,0,0,1-.5,4l-.951.55q-6.549,1.65-8.2,2.8-1.6,1.149-1.2,1.65,2.4,7.05,11.1,4.9a9.9,9.9,0,0,1,2.95-.45l.5,1.3A10.9,10.9,0,0,0,281.1,318Z" fill="#daedff" fill-rule="evenodd"/>
          </g>
          <g id="Capa_310" data-name="Capa 310">
            <path id="Trazado_64" data-name="Trazado 64" d="M286.6,296.6a29.429,29.429,0,0,1,8.25,5.35,2.946,2.946,0,0,0,3.25.55,2.375,2.375,0,0,0,1.5-2q.361-1.678.6-3.375L303,298.7q5.75,3.351,1.5,5.8l-17.351,10a4.415,4.415,0,0,0,.8-2.6Q287.449,303.849,286.6,296.6Z" fill="#daedff" fill-rule="evenodd"/>
          </g>
          <g id="Capa_309" data-name="Capa 309">
            <path id="Trazado_65" data-name="Trazado 65" d="M227.5,252.95q21.087,11.858,43.25,25.3.3,1.2.6,2.4.246,1.023.475,2.05H246.6v-.1h-.1L143.35,222.975q.985-4.238,1.95-8.475a48.457,48.457,0,0,0,.6-8.55q8.32,4.824,17.951,10.4a14.845,14.845,0,0,0-2.4,1.65,8.762,8.762,0,0,0-2.3,2.05,7.163,7.163,0,0,0-.5,2.85v3.75l.5-.25a10.806,10.806,0,0,0,3.951,2.85q13.75,7.9,41,23.7a46.216,46.216,0,0,0,4.5,2.8q2.8,1.451,4.85,2.4h2.6a8.7,8.7,0,0,0,2.849-.5,23.067,23.067,0,0,0,4.551-1.9Q224.7,254.8,227.5,252.95Z" fill="#daedff" fill-rule="evenodd"/>
          </g>
          <g id="Capa_308" data-name="Capa 308">
            <path id="Trazado_66" data-name="Trazado 66" d="M2.6,238.5,177,339.4a4.472,4.472,0,0,0,4.3,0l65.75-37.95,1.349.75q1.3.75,1.1,1.7.2.9-1.1,1.5l-67.1,38.85a4.3,4.3,0,0,1-4.3,0L1.3,242.6h.2Q0,242.049,0,240.95q0-.75,1.3-1.7Z" fill="#daedff" fill-rule="evenodd"/>
          </g>
          <g id="Capa_306" data-name="Capa 306">
            <path id="Trazado_67" data-name="Trazado 67" d="M16.05,92.85" fill="#daedff" fill-rule="evenodd"/>
          </g>
          <g id="Capa_305" data-name="Capa 305">
            <path id="Trazado_68" data-name="Trazado 68" d="M120.35,192.25q-.4,3.3-.65,6.7-.1.851-.15,1.75-.1,2-.2,4.15-.114,2.07-.225,4.15L89.75,192l16.1-9.3q5.982,3.484,14.625,8.5C120.434,191.552,120.393,191.9,120.35,192.25Z" fill="#daedff" fill-rule="evenodd"/>
          </g>
        </g>
      </g>
    </g>
  </g>
  <g id="Capa_14" data-name="Capa 14">
    <path id="Trazado_69" data-name="Trazado 69" d="M300.175,282.35q-.052-.444-.125-.9a160.3,160.3,0,0,0-4.55-19.6,13.8,13.8,0,0,1-.65-3.95q-.249-3.9-.451-7.85-.049-2.3-.25-4.5-.049-.9-.1-1.85-.4-5.25-1.151-10.35-.448-3.2-1.049-6.3a8.143,8.143,0,0,1,.049-4.2q.7-2.1.8-2.5l.05-.15q.5-.9,1-1.8,3.651-8.149,2.9-13.4-.1-.7-.224-1.325L366.4,244.05Zm-17.151-8.175,2.851-1.675q.156.552.325,1.1a1.749,1.749,0,0,0,.15.45q.35,1.1.65,2.25.45,2,.8,4.05a7.031,7.031,0,0,1,.15.8v.55a.159.159,0,0,1,.1.15,4.68,4.68,0,0,1,.125.85h-4.05A56.525,56.525,0,0,1,283.024,274.175Z" fill-rule="evenodd" fill="url(#linear-gradient-3)"/>
  </g>
  <g id="Capa_13" data-name="Capa 13">
    <path id="Trazado_70" data-name="Trazado 70" d="M208.35,73.65,93.2,7a8.272,8.272,0,0,0-3.95-1.15L99.75,0,225.325,73.6c-.091.214-.182.431-.275.65a12.722,12.722,0,0,1-2.7,1.65A11.29,11.29,0,0,0,220.4,77l-12.5-7.25q-2.3-1.35-1.6.05Zm78.8,115.175a14.617,14.617,0,0,0-5.6-5.475,7.51,7.51,0,0,0-4-1.275V117.5a22.161,22.161,0,0,0-1.55-3.25,20.59,20.59,0,0,0-3-3.2L248.35,96.8a17.792,17.792,0,0,0,2.9-1.8,38.954,38.954,0,0,0,4.149-3.75l30.2,17.7q.8,1.55,1.549,2.9Z" fill-rule="evenodd" fill="url(#linear-gradient-4)"/>
  </g>
  <g id="Capa_12" data-name="Capa 12">
    <path id="Trazado_71" data-name="Trazado 71" d="M86.45,154.625V149.3l.25-.45q.75-1.65,1.5-3a41.527,41.527,0,0,1,2.15-3.95,19.646,19.646,0,0,0,1.5-2.725l2.05,1.175L89,156.1Zm3.7-88.1L92.675,68l-3.7,11.75q-.765,1.074-1.525,2.15l-1.9-1.1,4.3-13.5h.05Z" fill="#45446c" fill-rule="evenodd"/>
  </g>
  <g id="Capa_11" data-name="Capa 11">
    <path id="Trazado_72" data-name="Trazado 72" d="M159.149,226.4a10.256,10.256,0,0,1,1.9-1.45q1.549.949,3.95,2.6,3.5,1.9,4.85,2.8a72.138,72.138,0,0,0,7,3.55,43.472,43.472,0,0,0,6.049,3.95A119.5,119.5,0,0,1,196.4,246q8.451,4.65,13.651,7.7a13.526,13.526,0,0,1,1.75,1.65,11.266,11.266,0,0,1,1.65,2.8q-2.051-.949-4.85-2.4a46.216,46.216,0,0,1-4.5-2.8q-27.249-15.8-41-23.7A10.806,10.806,0,0,1,159.149,226.4Z" fill="#9291bc" fill-rule="evenodd"/>
  </g>
  <g id="Capa_10" data-name="Capa 10">
    <path id="Trazado_73" data-name="Trazado 73" d="M163.85,216.35q7.4,4.249,15.1,8.6,22.851,13.35,48.55,28-2.8,1.851-4.05,2.8a23.067,23.067,0,0,1-4.551,1.9,8.7,8.7,0,0,1-2.849.5h-2.6a11.266,11.266,0,0,0-1.65-2.8,13.526,13.526,0,0,0-1.75-1.65q-5.2-3.049-13.651-7.7a119.5,119.5,0,0,0-13.5-8.15,43.472,43.472,0,0,1-6.049-3.95,72.138,72.138,0,0,1-7-3.55q-1.35-.9-4.85-2.8-2.4-1.65-3.95-2.6a10.256,10.256,0,0,0-1.9,1.45l-.5.25V222.9a7.163,7.163,0,0,1,.5-2.85,8.762,8.762,0,0,1,2.3-2.05A14.845,14.845,0,0,1,163.85,216.35Z" fill="#353458" fill-rule="evenodd"/>
  </g>
  <g id="Capa_9" data-name="Capa 9">
    <g id="Capa_204" data-name="Capa 204">
      <g id="Capa_205" data-name="Capa 205">
        <g id="Capa_206" data-name="Capa 206">
          <g id="Capa_213" data-name="Capa 213">
            <path id="Trazado_74" data-name="Trazado 74" d="M217.875,88.525l-84.8-48.55L134.45,35.6l-3.85-2.35-3.55,2-.35,1.075-20.45-11.7,1.5-4.775-3.95-2.3-3.6,2.15-.4,1.25-4-2.3V33.7l-1.25,3.975-7.5-4.35V12.1q.3-5.85,2.2-6.25A8.272,8.272,0,0,1,93.2,7L208.35,73.65l4.7,8.75A7.94,7.94,0,0,0,216.1,85l3.1,1.85c-.134.2-.266.383-.4.55A13.977,13.977,0,0,1,217.875,88.525Z" fill="#8e8cc1" fill-rule="evenodd"/>
          </g>
          <g id="Capa_212" data-name="Capa 212">
            <path id="Trazado_75" data-name="Trazado 75" d="M275.75,199.4l.55,4.3q-1.75,1.25-3.25,2.35A19.5,19.5,0,0,0,271,208a10.657,10.657,0,0,0-1.05,1.1q-.2.3-.45.7-.2.312-.375.625-.921.291-1.775.475V116.85l-29.875-17.1q.634-.355,1.525-.8a.58.58,0,0,1,.149-.1l.2-.1a23.917,23.917,0,0,1,3.5-1.6,3.867,3.867,0,0,0,1.65.75,2.394,2.394,0,0,0,1.8-.3,13.936,13.936,0,0,0,2.05-.8L273,111.05a20.59,20.59,0,0,1,3,3.2,22.161,22.161,0,0,1,1.55,3.25v64.575q-2.818.1-4.651,3.575a3.976,3.976,0,0,0-.4,1.8v.65q.049.851.1,1.8a2.342,2.342,0,0,1,.049.45v.1q.2,1,.451,2a1.121,1.121,0,0,1,.1.5l1.25,3.65a4.056,4.056,0,0,0,.949,2.4A3.808,3.808,0,0,0,275.75,199.4Z" fill="#8e8cc1" fill-rule="evenodd"/>
          </g>
          <g id="Capa_211" data-name="Capa 211">
            <path id="Trazado_76" data-name="Trazado 76" d="M95.8,91.55v18.475l-8.75-5.075V97.525q2.856-3.792,5.45-7.875Z" fill="#8e8cc1" fill-rule="evenodd"/>
          </g>
          <g id="Capa_210" data-name="Capa 210">
            <path id="Trazado_77" data-name="Trazado 77" d="M95.8,116.475v17.85l-.2.625v-.05l-2.325-1.35a18.5,18.5,0,0,0,.075-1.85q0-2.25-2.8-3.95a11.891,11.891,0,0,0-3.5-1.35V111.45Z" fill="#8e8cc1" fill-rule="evenodd"/>
          </g>
          <g id="Capa_209" data-name="Capa 209">
            <path id="Trazado_78" data-name="Trazado 78" d="M93.55,74.65a8.114,8.114,0,0,0-1.2.15q-1.678,2.491-3.375,4.95L92.675,68l1.025.575A9.4,9.4,0,0,0,93.95,72,5.679,5.679,0,0,1,93.55,74.65Z" fill="#8e8cc1" fill-rule="evenodd"/>
          </g>
          <g id="Capa_208" data-name="Capa 208">
            <path id="Trazado_79" data-name="Trazado 79" d="M227.5,252.95q-25.7-14.649-48.55-28-7.7-4.35-15.1-8.6-9.63-5.577-17.951-10.4a55.108,55.108,0,0,0-.6-6.95,60.208,60.208,0,0,1-1.5-6c-.034-.2-.068-.4-.1-.6a16.976,16.976,0,0,1,.2-5.75,4.639,4.639,0,0,1,.3-1.3,6.139,6.139,0,0,1,.65-.9c.066-.233.15-.483.25-.75v-.025l120.8,69.7a51.2,51.2,0,0,0,.651,7.025q.309,1.363.625,2.725,1.732,7.575,3.575,15.125Q248.588,264.809,227.5,252.95Z" fill="#8e8cc1" fill-rule="evenodd"/>
          </g>
          <g id="Capa_207" data-name="Capa 207">
            <path id="Trazado_80" data-name="Trazado 80" d="M120.475,191.2q-8.643-5.015-14.625-8.5-13-7.581-13.4-7.9a8.756,8.756,0,0,1-1.325-.725l3.125-10.05,2.55-8.2,20.65,11.925a33.623,33.623,0,0,0,2.5,7.6,18.445,18.445,0,0,0,.949,1.6l.051.15a15.269,15.269,0,0,0,.75,2.35c.037.121.07.254.1.4a9.08,9.08,0,0,1,.15,1.8,8.075,8.075,0,0,1-.2,1.75Q121,187.244,120.475,191.2Z" fill="#8e8cc1" fill-rule="evenodd"/>
          </g>
        </g>
      </g>
    </g>
  </g>
  <g id="Capa_6" data-name="Capa 6">
    <g id="Layer_507" data-name="Layer 507">
      <g id="Capa_339" data-name="Capa 339">
        <g id="Capa_340" data-name="Capa 340">
          <g id="Capa_341" data-name="Capa 341">
            <g id="Capa_173" data-name="Capa 173">
              <g id="Capa_174" data-name="Capa 174">
                <g id="Capa_179" data-name="Capa 179">
                  <path id="Trazado_81" data-name="Trazado 81" d="M230.075,119.45,254.6,133.6v14.5l-24.951-14.4q.185-.51.4-1a3.35,3.35,0,0,0-.55-2.95,9.441,9.441,0,0,0-2.25-2.2,53.593,53.593,0,0,1,2.1-6.3Q229.667,120.44,230.075,119.45Z" fill="#27e0c0" fill-rule="evenodd"/>
                </g>
                <g id="Capa_178" data-name="Capa 178">
                  <path id="Trazado_82" data-name="Trazado 82" d="M126.9,59.85l88,50.825v.025a36.166,36.166,0,0,0,.1,3.65q.05,1.25.2,3.7a31.073,31.073,0,0,1-.275,7.15L123.05,72.125,126.4,61.4l.051-.1Z" fill="#27e0c0" fill-rule="evenodd"/>
                </g>
                <g id="Capa_177" data-name="Capa 177">
                  <path id="Trazado_83" data-name="Trazado 83" d="M116.625,68.425l-1.175-.675V53.25l5.024,2.9-.774,2.5h-.051Z" fill="#27e0c0" fill-rule="evenodd"/>
                </g>
              </g>
            </g>
          </g>
        </g>
      </g>
    </g>
  </g>
  <path id="Trazado_84" data-name="Trazado 84" d="M215.4,146.4a3.076,3.076,0,0,1-.9-.45,1.363,1.363,0,0,1-.7-1.45,3.386,3.386,0,0,1,.724-2.35,6.392,6.392,0,0,1,.826-.9q.472-.378.85-.7a5.226,5.226,0,0,1-.75.5,11.935,11.935,0,0,1-1.575.7c-.3.116-.624.233-.976.35a4.379,4.379,0,0,1-2.149.15,2.218,2.218,0,0,1-1.7-1.2,6.518,6.518,0,0,1-.075-2.175,7.074,7.074,0,0,1,.275-1.325,7.99,7.99,0,0,1,1-2.05,9.192,9.192,0,0,1,.8-.95,16.927,16.927,0,0,0,1.6-2.05q.648-.969,1.076-1.6.216-.353.375-.6a2.617,2.617,0,0,1-.2.7,6.647,6.647,0,0,1-.7,1.3c0,.033-.034.083-.1.15a7.454,7.454,0,0,0-.85,1.85,3.186,3.186,0,0,0,1.4,1.9,3.02,3.02,0,0,0,1.75.6,3.748,3.748,0,0,0,.5-.05,2.119,2.119,0,0,0,1.2-1.15,15.314,15.314,0,0,0,.65-1.55,21.644,21.644,0,0,1,1.05-2.5q.8-1.6,1.15-2.4.2-.435.375-.85a13.078,13.078,0,0,0,1.074-4.25.93.93,0,0,0-.25-.85,4.181,4.181,0,0,1-.6-.7,3.984,3.984,0,0,1,1.65.6l.4.3a45.032,45.032,0,0,1-1.451,5.375c-.141.441-.292.867-.449,1.275a8.72,8.72,0,0,0-.6,2.2q-.15.75-.35,2.25c-.033.2-.066.383-.1.55a1.738,1.738,0,0,1-.649-.55,1.763,1.763,0,0,1-.3-1,14.747,14.747,0,0,0-.65,2.85,15.965,15.965,0,0,1-.651,2.8,3.747,3.747,0,0,1-.849,1.1,2.058,2.058,0,0,0,.3-.25,7.8,7.8,0,0,0,1.3-1.3,1.308,1.308,0,0,0,.451,1.85,7.728,7.728,0,0,0,1.95,1.05,2.4,2.4,0,0,0,2.1-.4A3.527,3.527,0,0,0,224,139.45q.6-1.3,1.6-3.85.9-2.262,1.424-3.425c.064-.137.122-.262.176-.375a5.062,5.062,0,0,0,.449-2.1,7.787,7.787,0,0,0-.4-2.1v-.05a9.441,9.441,0,0,1,2.25,2.2,3.35,3.35,0,0,1,.55,2.95q-.218.49-.4,1a18.509,18.509,0,0,0-.949,3.45,17.822,17.822,0,0,0-.3,4.6,1.823,1.823,0,0,1-1.4.5,2.89,2.89,0,0,1-1.3-.5V140.5a22.569,22.569,0,0,1-.65,2.65,4.076,4.076,0,0,1-1.55,2.2,10.426,10.426,0,0,1-3.6,1.2,14.457,14.457,0,0,1-3.8,0A5.488,5.488,0,0,1,215.4,146.4ZM67.8,238.65l-.25-.125-2.775-1.55-.825-.475,1.55-5.125.775-2.55L67.4,225.05l-3.225-1.85-3.3-1.9L47.1,213.35l-2.7-1.55-.65,2.15-.525,1.7-.725,2.425-1.7,5.575-3.85-2.15,1.45-4.65L39.925,212l10.25-32.7L51.7,190.975l-.65-.375L45.6,207.75l23.1,13.3.5-1.7.6-1.95,1.775-5.825,1.875-6.1L74,203.65l-6.525-3.7L64.1,198.025l-4.2-2.375a6.513,6.513,0,0,0,.2-.75l4.1-1.4,11.1,6.4.45-1.4H75.7l.05-.05.275-.875L80.7,182.5,60.25,170.9l-.05-1.5.65-2.9,2.725,1.575A9.772,9.772,0,0,0,69.1,172.95h.2l1.05-.7q2.8,2.1,5.65,4.1a2.372,2.372,0,0,0,2.2.6,2.326,2.326,0,0,0,.6-.075l3.15,1.825.4-1.4H82.3l.05-.05,4.1-13.125L87,162.35h-.05l.3-.85-.8-.475-4.425-2.575,1.925-3.65,4.6,2.65L89,156.1l4.9-15.75-2.05-1.175a17.549,17.549,0,0,0,1.225-4.15L95.2,136.25l.4-1.3.2-.625,4.8-15.075-4.8-2.775-8.75-5.025-6.8-3.9v-.05l-.1-.1.05-.05-.85-.475a9.564,9.564,0,0,0,.85-1.125q.917-1,1.825-2.025L101.85,115.15l.45-1.3v-.05l4-12.95h.1l.85-2.7L95.8,91.55l-3.3-1.9q.789-1.239,1.55-2.5l.5-1.15,14.05,8.1.4-1.35h-.05V92.7L113,79.75h.05l.9-2.7-12.4-7.175q.114-.594.2-1.275l-.5-1.725.4-.225q.583-.117.725-1.075L115.25,73l.45-1.35h-.051V71.6l.976-3.175,3.024-9.775h.051l.775-2.5.075-.25-5.1-2.975-12.5-7.275-.55-.325V44.8a4.226,4.226,0,0,0-2.25-3.9l-5.6-3.225L95.8,33.7l4-12.75.4-1.25,3.85,2.2-2.95,9.45h.05L98.9,38.6l22.95,13.25h.049l.4-1.35h-.05l1.85-5.9,2.6-8.275.35-1.075,3.8,2.35-.05.1-.25.825L129.1,43.15h.049L128,46.85,124.5,58l-.125.4-.875,2.9-2.95,9.375-2.8,8.925h-.1l-.849,2.8-1.35,4.325L111.1,100.7l-4,12.75-4.15,13.2L95.8,149.4l-4.125,13.125-2.9,9.2L84.7,184.7l-4.75,15.15-1.025,3.3-.425,1.325-1.8,5.75-.025.075v.025l-2.925,9.35-.7,2.2L70.4,230.35l-1,3.2-.275.9L67.9,238.325ZM83.425,87.525q-.681.936-1.375,1.875a93.157,93.157,0,0,1-5.95,7.175L86.225,64.3l3.525,2.05V66.3l.4.225-.25.775h-.05l-4.3,13.5,1.9,1.1q-1.208,1.72-2.425,3.425L84.3,84.9Zm-4.5,39.35-6.3,1.1-1.15-.65-.525-5.775,1.5-7.95a7.976,7.976,0,0,0,.3-1.2q.242-1.047.425-2.025A7.066,7.066,0,0,0,76.5,109.3l-1.35,4.25H75.1L72.2,123ZM63.175,151.8l.575-4.3,2.35-.3,2.8-1.075,4.25,2.45-1.525,3.85L66.9,149.7l-2.6-1.5Z" fill="#62598e" fill-rule="evenodd"/>
  <path id="Trazado_85" data-name="Trazado 85" d="M232.649,81.45a.289.289,0,0,1-.1-.2,10.124,10.124,0,0,0-3.9-4.1,4.67,4.67,0,0,1,.2-.65v-.15l.049-.1c.053-.184.1-.342.125-.475.064-.2.106-.344.125-.425a11.617,11.617,0,0,0,1.551-.5q1.049-.5,1.55-.75a6.832,6.832,0,0,1,3.25-.65q4.7.95,4.7,6.55a7.942,7.942,0,0,1-.975,1.75q-.372.588-.875,1.35-.4.649-.75,1.2Zm25.5,5.55a20.182,20.182,0,0,1-1.75,2.95.387.387,0,0,0-.049.15.141.141,0,0,0-.05.1.088.088,0,0,0-.1.1c-.034.033-.067.067-.1.1a.141.141,0,0,0-.05.1v.05c-.2.233-.4.45-.6.65l-.051.05A38.954,38.954,0,0,1,251.25,95a17.792,17.792,0,0,1-2.9,1.8,13.936,13.936,0,0,1-2.05.8,2.394,2.394,0,0,1-1.8.3,3.867,3.867,0,0,1-1.65-.75q1.149-.6,1.7-.9a11.681,11.681,0,0,0,1.45-.8l.2-.15a6.675,6.675,0,0,0,1.3-3.55V91.3q.05-.1,0-.15a2.164,2.164,0,0,0-.05-.8V89.7a8.414,8.414,0,0,1,.8-.6q.806-.568,1.524-1.15a17.683,17.683,0,0,0,5.026-5.9,19.778,19.778,0,0,0,1.95-1.45,17,17,0,0,0,2.9-2.9v.1a18.547,18.547,0,0,1-.149,4.9.448.448,0,0,0-.05.2l-.051.05A31.7,31.7,0,0,1,258.149,87ZM69.95,137.65l-.95,1-.3.15v.1l-1.8,1.2-.1.05-1.45.55q-.3-2.449-.6-5.55-.069-.951-.125-1.95-.2-3.312-.275-7.05V124.2q-.1-2.4-.1-6.05V117.1q0-4.2.1-5.5v-.3a3.088,3.088,0,0,1,.1-.75,13.885,13.885,0,0,1,.5-2.9v-.3a.407.407,0,0,0,.1-.3A16.3,16.3,0,0,1,66.1,104a10.519,10.519,0,0,1,3-3.95,21.4,21.4,0,0,1,1.75-1.3l.6-.4,1.425,1.575q-1.5,1.5-3.075,2.925-1.4,3.45-.9,5.35a3.13,3.13,0,0,0,2.85,2.1,7.622,7.622,0,0,0,1.425.075q-.185.977-.425,2.025a7.976,7.976,0,0,1-.3,1.2l-1.5,7.95.525,5.775.075.825a5.277,5.277,0,0,0,.3,1.1,8.7,8.7,0,0,1,.4,3.675l-1.025,3.125c-.055.1-.113.2-.175.3l-.8,1A.66.66,0,0,0,69.95,137.65Z" fill="#87264f" fill-rule="evenodd"/>
  <path id="Trazado_86" data-name="Trazado 86" d="M237.6,84.3q.349-.551.75-1.2.5-.762.875-1.35A7.942,7.942,0,0,0,240.2,80q0-5.6-4.7-6.55a20.929,20.929,0,0,1,.6-3.05c.066-.233.133-.467.2-.7a12.972,12.972,0,0,0,2.65,2.5,15.761,15.761,0,0,0,9.85,3.25,13.771,13.771,0,0,0,4.45-.65q-.45.5-1.4,1.7l-2.4,2.95a41.3,41.3,0,0,1-2.95,3.35l-.3.3-.3.3-.2.2-.2.15-.351.35a2.019,2.019,0,0,1-1.024.525,4.019,4.019,0,0,1-.625.075h-.9a3.91,3.91,0,0,0-.85.15,6.923,6.923,0,0,0-2.45.45Zm10.575-59.375.075.025a.58.58,0,0,1,.149.1,3.079,3.079,0,0,1,1.451,1.1v.05h.049v.05a3.428,3.428,0,0,1,.7,2.35,1,1,0,0,1-.25.6h-.15a.408.408,0,0,1-.3.1h-.2a.445.445,0,0,1-.2-.05,1.084,1.084,0,0,1-.55-.45l-.6-.85q-.351-.3-.65-.6a4.367,4.367,0,0,0-.45-.4l-.1-.05a3.181,3.181,0,0,0-.5-.3,1.847,1.847,0,0,0-.25-.1c-.1-.033-.215-.067-.349-.1a8.342,8.342,0,0,1,.8-1,1.9,1.9,0,0,1,1.049-.55C248,24.876,248.093,24.9,248.175,24.925ZM255.05,41.5l1.9,1.65q-.1.349-.2.65a10.282,10.282,0,0,1-1,2.5A6.056,6.056,0,0,1,253,48.65a4.871,4.871,0,0,1-1.1.25l.051-.05a7.933,7.933,0,0,1-1.95.45,12.22,12.22,0,0,1-4.4-.4,8.442,8.442,0,0,1-3.5-2.2l.8-.45a2.823,2.823,0,0,0,.6.45,8.467,8.467,0,0,0,3.8,1.1,6.5,6.5,0,0,0,.8.05,17.475,17.475,0,0,0,3.95-.6,5.1,5.1,0,0,0,1.7-.85A4.854,4.854,0,0,0,255,45.05a3.271,3.271,0,0,0,.35-2.95A2.512,2.512,0,0,0,255.05,41.5Zm3.1,45.5a31.7,31.7,0,0,0,1.25-4.05,13.075,13.075,0,0,1-.449,1.9Q258.6,85.95,258.149,87Zm-10.7,2.8c-.025-.088-.051-.179-.075-.275a3.81,3.81,0,0,0-.125-.475c-.066-.233-.15-.483-.25-.75a2.291,2.291,0,0,1-.1-.25l-.049-.1q.448-.45.9-.95l.5-.45a.609.609,0,0,1,.25-.15,2.007,2.007,0,0,1,.3-.25l1.15-.9q.851-.6,3.449-2.25.75-.5,1.4-.95a17.683,17.683,0,0,1-5.026,5.9q-.717.581-1.524,1.15a8.414,8.414,0,0,0-.8.6Zm-193.7.05.6.6.4.2.9.5a5.18,5.18,0,0,0,.8.5,3.718,3.718,0,0,0,.1.8A3.112,3.112,0,0,0,58.2,94.4a7.481,7.481,0,0,0,4.25,1.2l1.6-.3h.1l2.75-.8.2.8.05.1a1.877,1.877,0,0,0,.55.6q.9.5,3.15,2v.75a21.4,21.4,0,0,0-1.75,1.3,10.519,10.519,0,0,0-3,3.95,16.3,16.3,0,0,0-1.05,3.05.407.407,0,0,1-.1.3v.3a13.885,13.885,0,0,0-.5,2.9,3.088,3.088,0,0,0-.1.75v.3q-.1,1.3-.1,5.5v1.05q0,3.649.1,6.05v1.95q.077,3.738.275,7.05.056,1,.125,1.95.3,3.1.6,5.55a16.933,16.933,0,0,1-3.25.5,22.073,22.073,0,0,1-9.15-1.7L49,137.15l-2.55-2.3a2.536,2.536,0,0,1-.4-1.35,70.326,70.326,0,0,1,.65-10.9l.1-7.6v-.2a68.123,68.123,0,0,0-.65-7.75v-.35q-.4-1.8-.8-3.6-.4-1.95-.95-3.85v-.6a8.743,8.743,0,0,1,3.45-8.2,3.952,3.952,0,0,1,1.15-.8l2.6-1.4,1.3.5.25.45.2.2Z" fill="#bc4074" fill-rule="evenodd"/>
  <path id="Trazado_87" data-name="Trazado 87" d="M214.9,110.675l-88-50.825,1.351-4.275V56.85a2.341,2.341,0,0,0,1.05,2l4.55,2.45q1.05.7,1.049-.65V55.5a2.1,2.1,0,0,0-1.049-1.9l-4.225-2.375.9-2.925L213.85,96.4a17.022,17.022,0,0,0,.5,3.9,27.48,27.48,0,0,1,.4,5.2Q214.75,109.571,214.9,110.675ZM254.6,133.6l-24.525-14.15q.774-1.837,1.875-4.3a16.175,16.175,0,0,0,.8-4.45,18.414,18.414,0,0,0-.175-3.475L254.6,119.95Zm-2.65-12.9-4.551-2.55q-1.049-.649-1.049.65v5.15a2.342,2.342,0,0,0,1.049,2l4.551,2.45q1.049.7,1.05-.65V122.6A2.1,2.1,0,0,0,251.95,120.7ZM122.25,50.5l-6.8-3.95V39.6l8.65,5Z" fill="#8585ff" fill-rule="evenodd"/>
  <g id="Layer_580" data-name="Layer 580">
    <g id="Layer_581" data-name="Layer 581">
      <g id="Layer_582" data-name="Layer 582">
        <g id="Layer_583" data-name="Layer 583">
          <g id="Layer_584" data-name="Layer 584">
            <g id="Layer_585" data-name="Layer 585">
              <g id="Layer_586" data-name="Layer 586">
                <g id="Layer_587" data-name="Layer 587">
                  <g id="Layer_588" data-name="Layer 588">
                    <g id="Layer_589" data-name="Layer 589">
                      <g id="Layer_590" data-name="Layer 590">
                        <g id="Layer_591" data-name="Layer 591">
                          <g id="Layer_592" data-name="Layer 592">
                            <g id="Layer_593" data-name="Layer 593">
                              <g id="Layer_594" data-name="Layer 594">
                                <g id="Layer_595" data-name="Layer 595">
                                  <g id="Layer_596" data-name="Layer 596">
                                    <g id="Layer_597" data-name="Layer 597">
                                      <g id="Layer_598" data-name="Layer 598">
                                        <g id="Layer_599" data-name="Layer 599">
                                          <g id="Layer_600" data-name="Layer 600">
                                            <g id="Layer_601" data-name="Layer 601">
                                              <g id="Layer_605" data-name="Layer 605">
                                                <g id="Layer_606" data-name="Layer 606">
                                                  <g id="Layer_607" data-name="Layer 607">
                                                    <g id="Layer_608" data-name="Layer 608">
                                                      <g id="Layer_610" data-name="Layer 610">
                                                        <g id="Layer_611" data-name="Layer 611">
                                                          <path id="Trazado_88" data-name="Trazado 88" d="M116.024,224.525q.4-1.66.826-3.325.7-2.679,1.5-5.35a13.443,13.443,0,0,0,.6-3.7q.087-1.581.175-3.15.111-2.08.225-4.15.1-2.149.2-4.15.049-.9.15-1.75.249-3.4.65-6.7a15.8,15.8,0,0,0,2.7,3.3,17.585,17.585,0,0,0,3.849,2.8,27.931,27.931,0,0,0,5.25,2.1q.6,4.751,1.9,11.35.705,3.405,1.075,6.425a51.57,51.57,0,0,1,.375,5.975,58.547,58.547,0,0,1-.575,7.45q-.2,1.547-.475,3.25c-.007.073-.031.264-.075.575q-.2,1.192-.8,4.65-.21,1.237-.475,2.75-.059.336-.125.675-.255,1.536-.576,3.325c-.014.109-.031.218-.049.325q-.522,2.924-.925,5.625-.219,1.421-.4,2.775-.72,5.49-.924,10l-3.55-.2a3.6,3.6,0,0,1-1.175-2.525c-.014-.123-.022-.248-.025-.375q.135-2.265.3-4.475.13-1.65.276-3.275.094-1.1.2-2.175.221-2.217.475-4.375l.125-1.025.025-.125.649-5.75a8.631,8.631,0,0,0,.25-.9c.057-.182.115-.365.176-.55a53.846,53.846,0,0,0,1.35-5.75q.185-.987.325-1.975.238-1.7.375-3.4.168-2.379.125-4.775-.1-3.049-.15-6.05.15-2.4.15-2.45v-.175a18.14,18.14,0,0,0-.25-2.425q-.5-2.25-.5-2.4a5.3,5.3,0,0,0-.15-.7.448.448,0,0,0-.05-.2,3.882,3.882,0,0,0-.25-.65,9.322,9.322,0,0,0-3.1-3.7,28.007,28.007,0,0,1-2.75-2.35,16.9,16.9,0,0,0,.2,1.7,42.028,42.028,0,0,1-.4,5.25q-.063.586-.125,1.2-.62,5.032-2.075,12.35-.1.493-.2,1-.465,2.3-.85,4.425-.284,1.553-.525,3.025-.232,1.4-.425,2.725-.261,1.779-.45,3.4-.22,1.792-.35,3.4-.148,1.847-.175,3.45c-.016.386-.025.761-.025,1.125v2.75q.015,2.711.05,3.2a3.058,3.058,0,0,0,.049.4,7.145,7.145,0,0,1-2.2-.15,1.49,1.49,0,0,1-.95-.2q-.146-.676-.275-1.35-.252-1.4-.425-2.8-.143-1.236-.225-2.475a46.611,46.611,0,0,1-.1-4.75,52.325,52.325,0,0,1,.625-6.375q.168-1.008.35-2.025.426-2.339.925-4.675Q115.688,225.991,116.024,224.525Z" fill="#a48263" fill-rule="evenodd"/>
                                                        </g>
                                                      </g>
                                                    </g>
                                                  </g>
                                                </g>
                                              </g>
                                            </g>
                                          </g>
                                        </g>
                                      </g>
                                    </g>
                                  </g>
                                </g>
                              </g>
                            </g>
                          </g>
                        </g>
                      </g>
                    </g>
                  </g>
                </g>
              </g>
            </g>
          </g>
        </g>
      </g>
    </g>
  </g>
</svg>
